<svg width="53" height="56" viewBox="0 0 53 56" fill="none" xmlns="http://www.w3.org/2000/svg">
<path d="M38.1381 19.4425L8.51854 3.08337C7.64784 2.58879 6.70629 2.231 5.72688 2.02253C4.9344 1.93131 4.13488 2.11885 3.46562 2.55295M38.1381 19.4425L29.9446 27.8175M38.1381 19.4425L47.909 24.8444C51.3846 26.7707 51.3846 28.8086 47.909 30.7348L38.1381 36.1367L29.9446 27.7617L38.1381 19.3867V19.4425ZM29.9446 27.8175L3.46562 2.55295M29.9446 27.8175L3.49354 53.0402M29.9446 27.8175L38.1381 36.1925L8.57438 52.5517C6.95521 53.445 4.77771 54.2127 3.49354 53.0402M3.46562 2.55295L29.9865 27.8175L3.49354 53.0402M3.46562 2.55295L3.39583 2.56691C2.5025 3.34857 2 4.95378 2 7.28482V48.3502C2 50.6813 2.51646 52.2586 3.49354 53.0402" stroke="#F2F2F2" stroke-width="3" stroke-linecap="round" stroke-linejoin="round"/>
</svg>
