<svg width="37" height="44" viewBox="0 0 37 44" fill="none" xmlns="http://www.w3.org/2000/svg">
<path d="M21.9864 43.0489L22.3901 42.134C22.3081 42.0979 22.2269 42.0615 22.1461 42.0252C21.3317 41.66 20.546 41.3077 19.2181 41.3077C17.7104 41.3077 16.8438 41.6884 15.9547 42.079C15.9151 42.0964 15.8755 42.1138 15.8357 42.1312L15.8337 42.1321L15.8334 42.1322C14.9169 42.5359 13.8633 43 12.4566 43C11.1557 43 9.92729 42.3781 8.61241 41.3177C7.32369 40.2771 6.06247 38.8602 4.94013 37.1133L4.93986 37.1129C2.68586 33.6085 1 28.9282 1 23.9563C1 16.3249 5.84925 10.8357 11.925 10.8357C13.4511 10.8357 14.7592 11.3012 15.916 11.7678C16.0823 11.8354 16.1859 11.8661 16.2771 11.891C16.2823 11.8924 16.2871 11.8937 16.2916 11.8949C16.3352 11.9068 16.3537 11.9118 16.4066 11.9323L18.0159 12.5568L17.757 10.85C17.3604 8.2356 18.6179 5.89907 19.8876 4.33241L20.1107 4.05712V4.02896C21.8296 2.16957 24.2666 1 26.6184 1H27.2793L27.3238 1.64658C27.4476 3.98765 26.6879 6.28597 25.201 8.09615H25.0992L24.846 8.44211C24.788 8.5002 24.7428 8.55966 24.7079 8.61483C24.6881 8.64611 24.6714 8.67649 24.6571 8.70523C24.5885 8.76886 24.4953 8.84204 24.3623 8.93721C24.3315 8.95924 24.2968 8.98357 24.2592 9.00998C24.0743 9.13975 23.8178 9.31978 23.5959 9.52566L21.0497 11.8877L24.4621 11.2413C24.7627 11.1844 25.0702 11.0986 25.3185 11.0293C25.4082 11.0042 25.4903 10.9813 25.5615 10.9627C25.8618 10.8843 26.1179 10.8357 26.4055 10.8357C28.0242 10.8357 32.0535 11.3594 34.5654 15.1963L34.5653 15.1964L34.5714 15.2054L34.9542 15.7766L34.3929 16.1278L34.3916 16.1286C34.3159 16.1762 34.29 16.1906 34.2755 16.1987L34.2746 16.1992L34.2699 16.2019C34.2584 16.2083 34.2362 16.2206 34.2129 16.2342C34.1859 16.25 34.1585 16.2668 34.1273 16.2867C34.1083 16.2983 34.0979 16.3041 34.0816 16.3131C34.0615 16.3242 34.0324 16.3402 33.9675 16.3781C33.8766 16.4312 33.7647 16.5004 33.6379 16.594L33.6342 16.5967C33.2173 16.9073 32.6953 17.3858 32.2031 17.9549C30.8816 19.4331 30.1648 21.3509 30.1959 23.3301C30.1982 25.9037 31.2492 27.6161 32.4555 28.8373L32.459 28.8409C33.2813 29.6651 34.2412 30.3407 35.2958 30.838L35.3022 30.8411L35.3087 30.844L35.8402 31.0855L35.7059 31.6624C35.6543 31.8836 35.629 31.9427 35.5622 32.099C35.5301 32.1742 35.4884 32.2719 35.4295 32.4208L35.428 32.4245C35.289 32.7803 35.1092 33.2172 34.8666 33.7448C34.3727 34.817 33.7014 36.1446 32.8525 37.4912L32.8521 37.4919C31.9959 38.8527 30.9944 40.2103 29.8379 41.2439L29.8378 41.244C28.6768 42.2819 27.3547 43 25.8722 43C24.4112 43 23.3034 42.5354 22.3887 42.1334L21.9864 43.0489ZM21.9864 43.0489C22.9182 43.4585 24.1891 44 25.8722 44C27.6951 44 29.2453 43.1149 30.5043 41.9895M21.9864 43.0489C21.9029 43.0121 21.8219 42.9759 21.7427 42.9405C20.9389 42.5812 20.327 42.3077 19.2181 42.3077C17.9216 42.3077 17.2151 42.6178 16.3472 42.9988C16.3107 43.0148 16.2739 43.031 16.2368 43.0472L16.2041 43.0616C15.2895 43.4646 14.0743 44 12.4566 44C10.8194 44 9.36968 43.2131 7.98467 42.0962C6.60136 40.9792 5.27087 39.4782 4.09881 37.6538L30.5043 41.9895M30.5043 41.9895C31.7615 40.8658 32.8211 39.4189 33.6985 38.0245L30.5043 41.9895ZM32.8437 15.5057L32.0228 16.2401C31.9069 16.3438 31.8087 16.4279 31.7203 16.5036C31.5102 16.6835 31.3555 16.816 31.1501 17.0512L31.1484 17.0532C29.6233 18.7902 28.7859 21.0171 28.7905 23.3197L28.7905 23.3217C28.7905 26.2351 30.0649 28.421 31.4302 29.8128L32.8437 15.5057ZM32.8437 15.5057L32.0337 14.7593M32.8437 15.5057L32.0337 14.7593M32.0337 14.7593C29.9979 12.8836 27.5552 12.2203 26.4055 12.2203C24.9037 12.2203 23.4091 12.619 22.0904 13.0672C21.7355 13.1878 21.4176 13.3066 21.1218 13.4171C20.2112 13.7571 19.5095 14.0192 18.5792 14.0192C17.6 14.0192 16.9054 13.725 16.0324 13.3552C15.828 13.2685 15.6137 13.1778 15.3837 13.0857C14.2974 12.6507 13.0893 12.222 11.925 12.222C9.23581 12.222 6.82609 13.3753 5.10673 15.4501C3.39596 17.5145 2.40716 20.4387 2.40716 23.9563C2.40716 28.5858 4.02852 33.074 6.131 36.3424C7.1827 37.982 8.36987 39.3229 9.48378 40.2274L9.48441 40.2279M32.0337 14.7593L9.48441 40.2279M34.2348 31.6791L33.8683 32.5064C33.837 32.577 33.8125 32.6385 33.7797 32.7204C33.7731 32.737 33.7661 32.7545 33.7587 32.7731C33.7162 32.8791 33.6653 33.0032 33.5944 33.1553C33.0303 34.3919 32.3895 35.5925 31.6758 36.7503L31.6712 36.7578L31.6711 36.7578C30.8684 38.0348 29.8736 39.3151 28.8794 40.1998L28.8794 40.1999C27.9029 41.0687 26.8669 41.6154 25.8722 41.6154C24.7334 41.6154 24.0023 41.2956 23.1194 40.9095C23.0707 40.8882 23.0216 40.8667 22.972 40.8451C22.0151 40.4282 20.8378 39.9231 19.2181 39.9231C17.4881 39.9231 16.2085 40.4264 15.2527 40.8444L34.2348 31.6791ZM34.2348 31.6791L33.4481 31.232M34.2348 31.6791L33.4481 31.232M33.4481 31.232C33.3112 31.1542 33.185 31.0854 33.0652 31.0202M33.4481 31.232L33.0652 31.0202M9.48441 40.2279C10.0527 40.6885 10.6033 41.0251 11.0902 41.2504C11.5497 41.4631 12.0354 41.6154 12.4566 41.6154C13.5036 41.6154 14.1937 41.3112 15.0593 40.9295M9.48441 40.2279L15.0593 40.9295M33.0652 31.0202C32.5143 30.7202 32.1017 30.4955 31.431 29.8136L33.0652 31.0202ZM15.0593 40.9295C15.1227 40.9016 15.187 40.8732 15.2525 40.8445L15.0593 40.9295ZM24.9041 8.38725L24.9033 8.38795C24.905 8.3864 24.9058 8.38568 24.9041 8.38725ZM25.5618 4.16806L25.5945 4.0433V3.91431V3.91262V2.42853L24.2191 2.98579C23.087 3.4444 21.9212 4.14787 21.0465 5.12895C21.042 5.13327 21.0372 5.13791 21.0322 5.14283C21.0064 5.16815 20.9679 5.2082 20.9268 5.26232C20.1511 6.24525 19.6161 7.49597 19.3134 8.69162L18.8414 10.5555L20.6384 9.8717C21.7454 9.45049 22.9047 8.72598 23.6985 7.69309L23.7559 7.63606L23.7701 7.62188L23.7838 7.60714C24.7037 6.61665 25.2429 5.3838 25.5618 4.16806Z" stroke="#F2F2F2" strokeWidth="2"/>
</svg>
