    <svg
          width="450"
          height="400"
          viewBox="0 0 795 802"
          fill="none"
          xmlns="http://www.w3.org/2000/svg"
        >
          <path
            d="M397.003 802C616.262 802 794.006 699.379 794.006 572.789C794.006 446.199 616.262 343.578 397.003 343.578C177.744 343.578 0 446.199 0 572.789C0 699.379 177.744 802 397.003 802Z"
            fill="#F2F2F2"
          />
          <path
            d="M459.302 733.289C506.717 733.289 545.154 711.097 545.154 683.722C545.154 656.347 506.717 634.155 459.302 634.155C411.887 634.155 373.449 656.347 373.449 683.722C373.449 711.097 411.887 733.289 459.302 733.289Z"
            fill="#E0E0E0"
          />
          <path
            d="M414.683 515.9L185.048 648.506C178.585 652.236 167.303 651.768 159.843 647.46L78.3138 600.389C70.8537 596.083 70.0438 589.568 76.5039 585.838L306.143 453.23C312.607 449.5 323.888 449.97 331.348 454.276L412.877 501.347C420.337 505.653 421.147 512.17 414.683 515.9Z"
            fill="#E0E0E0"
          />
          <path
            d="M661.958 562.197L680.047 572.704C680.047 572.704 670.922 543.567 675.984 514.257C677.198 507.351 679.693 500.733 683.342 494.745C684.762 491.793 695.669 473.512 686.068 465.088C676.467 456.663 653.939 473.422 654.95 518.565C655.438 533.346 657.792 548.006 661.958 562.197Z"
            fill="#022859"
          />
          <path
            opacity="0.5"
            d="M661.958 562.197L680.047 572.704C680.047 572.704 670.922 543.567 675.984 514.257C677.198 507.351 679.693 500.733 683.342 494.745C684.762 491.793 695.669 473.512 686.068 465.088C676.467 456.663 653.939 473.422 654.95 518.565C655.438 533.346 657.792 548.006 661.958 562.197Z"
            fill="black"
          />
          <path
            d="M670.366 567.911C670.199 567.909 670.038 567.857 669.902 567.761C669.766 567.665 669.662 567.529 669.605 567.373C669.537 567.183 662.697 548.19 663.058 517.728C663.419 487.082 679.524 470.739 679.685 470.579C679.84 470.426 680.049 470.34 680.267 470.341C680.485 470.342 680.693 470.429 680.847 470.583C681 470.738 681.086 470.947 681.086 471.165C681.085 471.383 680.998 471.591 680.843 471.745C680.685 471.901 665.05 487.812 664.698 517.753C664.341 547.89 671.077 566.63 671.145 566.814C671.22 567.019 671.211 567.244 671.119 567.442C671.027 567.639 670.861 567.792 670.657 567.867C670.563 567.9 670.465 567.915 670.366 567.911Z"
            fill="white"
          />
          <path
            d="M675.986 570.411L705.87 587.986C705.87 587.986 719.558 585.97 718.516 573.09C717.474 560.21 711.923 557.175 718.845 551.516C725.767 545.856 727.553 545.481 727.222 539.936C726.891 534.39 723.159 531.968 721.404 529.77C719.649 527.572 714.75 522.96 718.197 516.272C721.644 509.584 726.307 503.12 719.379 500.055C715.243 498.224 708.288 500.517 703.676 505.411C699.064 510.304 695.263 513.825 690.894 514.96C686.526 516.095 677.417 516.188 677.725 523.706C678.033 531.223 679.986 533.831 678.16 537.173C674.719 543.474 660.031 546.863 675.986 570.411Z"
            fill="#022859"
          />
          <path
            opacity="0.2"
            d="M675.986 570.411L705.87 587.986C705.87 587.986 719.558 585.97 718.516 573.09C717.474 560.21 711.923 557.175 718.845 551.516C725.767 545.856 727.553 545.481 727.222 539.936C726.891 534.39 723.159 531.968 721.404 529.77C719.649 527.572 714.75 522.96 718.197 516.272C721.644 509.584 726.307 503.12 719.379 500.055C715.243 498.224 708.288 500.517 703.676 505.411C699.064 510.304 695.263 513.825 690.894 514.96C686.526 516.095 677.417 516.188 677.725 523.706C678.033 531.223 679.986 533.831 678.16 537.173C674.719 543.474 660.031 546.863 675.986 570.411Z"
            fill="black"
          />
          <path
            d="M688.155 578.386C687.948 578.386 687.749 578.307 687.597 578.166C687.446 578.025 687.353 577.832 687.338 577.626C687.301 577.179 684.049 532.62 715.007 503.361C715.167 503.223 715.374 503.153 715.585 503.164C715.795 503.175 715.994 503.266 716.139 503.42C716.284 503.573 716.364 503.776 716.363 503.987C716.363 504.198 716.281 504.401 716.134 504.553C685.762 533.26 688.948 577.051 688.974 577.491C688.983 577.598 688.971 577.706 688.938 577.809C688.905 577.911 688.852 578.006 688.782 578.088C688.713 578.171 688.627 578.238 688.531 578.287C688.436 578.336 688.331 578.366 688.224 578.375L688.155 578.386Z"
            fill="white"
          />
          <path
            d="M693.514 540.202C693.306 540.202 693.107 540.124 692.955 539.982C692.803 539.841 692.71 539.648 692.694 539.441C692.459 536.02 691.533 532.682 689.972 529.629C688.411 526.577 686.247 523.872 683.611 521.679C683.445 521.548 683.336 521.357 683.307 521.148C683.278 520.938 683.33 520.726 683.454 520.554C683.578 520.383 683.763 520.265 683.971 520.227C684.179 520.189 684.394 520.232 684.571 520.348C687.421 522.664 689.761 525.545 691.441 528.811C693.122 532.077 694.106 535.656 694.333 539.322C694.348 539.539 694.277 539.753 694.134 539.918C693.992 540.082 693.79 540.184 693.573 540.2L693.514 540.202Z"
            fill="white"
          />
          <path
            d="M691.301 547.806C691.142 547.806 690.987 547.76 690.854 547.674C690.721 547.587 690.616 547.464 690.551 547.32C690.486 547.175 690.465 547.015 690.489 546.858C690.514 546.701 690.583 546.555 690.689 546.437C691.012 546.078 698.803 537.654 716.824 540.129C716.934 540.139 717.042 540.171 717.139 540.224C717.237 540.277 717.323 540.349 717.392 540.436C717.461 540.523 717.512 540.623 717.541 540.73C717.57 540.837 717.577 540.949 717.562 541.059C717.547 541.169 717.51 541.275 717.453 541.37C717.395 541.465 717.32 541.548 717.23 541.613C717.14 541.678 717.037 541.724 716.929 541.748C716.821 541.772 716.709 541.774 716.599 541.754C699.504 539.408 691.983 547.458 691.909 547.536C691.832 547.621 691.739 547.689 691.634 547.735C691.529 547.782 691.415 547.806 691.301 547.806Z"
            fill="white"
          />
          <path
            d="M113.966 536.614L105.031 555.529C105.031 555.529 96.0152 526.357 75.2147 505.097C70.2971 500.099 64.4872 496.065 58.0853 493.205C55.2336 491.58 35.8874 482.713 39.011 470.325C42.1346 457.937 70.1899 458.961 94.9772 496.707C102.964 509.156 109.344 522.564 113.966 536.614Z"
            fill="#022859"
          />
          <path
            opacity="0.5"
            d="M113.966 536.614L105.031 555.529C105.031 555.529 96.0152 526.357 75.2147 505.097C70.2971 500.099 64.4872 496.065 58.0853 493.205C55.2336 491.58 35.8874 482.713 39.011 470.325C42.1346 457.937 70.1899 458.961 94.9772 496.707C102.964 509.156 109.344 522.564 113.966 536.614Z"
            fill="black"
          />
          <path
            d="M109.814 546.229C109.632 546.23 109.455 546.169 109.311 546.058C109.167 545.946 109.064 545.79 109.019 545.613C108.968 545.423 103.886 526.168 86.4925 501.556C69.2147 477.103 47.3134 472.873 47.0948 472.833C46.884 472.791 46.6982 472.667 46.5774 472.489C46.4566 472.311 46.4104 472.093 46.4487 471.881C46.487 471.67 46.6069 471.482 46.7824 471.357C46.958 471.233 47.1753 471.183 47.3876 471.217C47.6138 471.257 70.1463 475.576 87.8328 500.607C105.413 525.489 110.557 545.01 110.607 545.204C110.634 545.309 110.64 545.417 110.625 545.524C110.609 545.63 110.574 545.733 110.519 545.825C110.464 545.918 110.392 545.999 110.306 546.064C110.22 546.129 110.122 546.176 110.017 546.202C109.951 546.22 109.883 546.229 109.814 546.229Z"
            fill="white"
          />
          <path
            d="M107.077 551.332L92.4378 582.76C92.4378 582.76 80.0252 588.865 73.5708 577.671C67.1163 566.477 69.9719 560.823 61.0611 560.091C52.1504 559.359 50.466 560.064 47.5915 555.308C44.7169 550.551 46.4165 546.442 46.6143 543.636C46.812 540.83 48.2283 534.256 41.5952 530.709C34.9621 527.161 27.4544 524.48 31.4202 518.024C33.7872 514.17 40.8157 512.111 47.3899 513.526C53.9641 514.94 59.0915 515.68 63.3349 514.136C67.5783 512.592 75.1221 507.501 79.1449 513.872C83.1678 520.243 83.0271 523.494 86.4264 525.208C92.8314 528.433 106.85 522.889 107.077 551.332Z"
            fill="#022859"
          />
          <path
            opacity="0.2"
            d="M107.077 551.332L92.4378 582.76C92.4378 582.76 80.0252 588.865 73.5708 577.671C67.1163 566.477 69.9719 560.823 61.0611 560.091C52.1504 559.359 50.466 560.064 47.5915 555.308C44.7169 550.551 46.4165 546.442 46.6143 543.636C46.812 540.83 48.2283 534.256 41.5952 530.709C34.9621 527.161 27.4544 524.48 31.4202 518.024C33.7872 514.17 40.8157 512.111 47.3899 513.526C53.9641 514.94 59.0915 515.68 63.3349 514.136C67.5783 512.592 75.1221 507.501 79.1449 513.872C83.1678 520.243 83.0271 523.494 86.4264 525.208C92.8314 528.433 106.85 522.889 107.077 551.332Z"
            fill="black"
          />
          <path
            d="M101.113 564.953C100.969 564.953 100.827 564.915 100.702 564.843C100.577 564.77 100.474 564.666 100.402 564.541C100.183 564.161 77.9533 526.297 36.6506 519.89C36.4425 519.849 36.2584 519.729 36.1367 519.555C36.0151 519.382 35.9654 519.168 35.9981 518.958C36.0308 518.748 36.1433 518.56 36.312 518.431C36.4808 518.303 36.6928 518.244 36.9035 518.269C78.997 524.797 101.602 563.339 101.824 563.72C101.896 563.844 101.933 563.986 101.933 564.13C101.933 564.273 101.895 564.415 101.823 564.539C101.751 564.664 101.647 564.767 101.523 564.839C101.398 564.911 101.257 564.949 101.113 564.95V564.953Z"
            fill="white"
          />
          <path
            d="M75.0374 536.55C74.8939 536.55 74.753 536.512 74.6286 536.441C74.5042 536.37 74.4006 536.267 74.3282 536.143C72.4342 532.996 71.2138 529.491 70.7442 525.848C70.2746 522.206 70.5661 518.505 71.6001 514.981C71.6364 514.88 71.6923 514.787 71.7647 514.707C71.837 514.627 71.9244 514.563 72.0218 514.517C72.1191 514.471 72.2246 514.444 72.3321 514.439C72.4397 514.434 72.5472 514.45 72.6486 514.486C72.7499 514.522 72.8432 514.578 72.9229 514.651C73.0026 514.723 73.0674 514.81 73.1133 514.908C73.1593 515.005 73.1857 515.111 73.1909 515.218C73.1961 515.326 73.1801 515.433 73.1438 515.535C72.2192 518.835 71.9729 522.289 72.4199 525.687C72.8669 529.085 73.9979 532.358 75.7446 535.307C75.799 535.4 75.8346 535.503 75.8492 535.61C75.8639 535.716 75.8573 535.825 75.83 535.929C75.8026 536.034 75.755 536.132 75.6898 536.218C75.6246 536.304 75.543 536.376 75.4499 536.43C75.3256 536.506 75.1832 536.548 75.0374 536.55Z"
            fill="white"
          />
          <path
            d="M56.81 550.996C56.6445 550.996 56.4829 550.946 56.3465 550.853C56.21 550.759 56.105 550.626 56.0454 550.472C55.9857 550.318 55.9742 550.149 56.0122 549.988C56.0503 549.827 56.1362 549.681 56.2586 549.57C69.6865 537.311 80.89 539.827 81.3539 539.939C81.5654 539.989 81.7482 540.122 81.8621 540.307C81.9761 540.492 82.0117 540.715 81.9613 540.926C81.9109 541.138 81.7785 541.321 81.5933 541.435C81.4081 541.549 81.1852 541.584 80.9736 541.534C80.8634 541.511 70.1047 539.148 57.3613 550.781C57.2107 550.919 57.0141 550.996 56.81 550.996Z"
            fill="white"
          />
          <path
            d="M107.282 153.643C107.282 148.104 108.741 142.663 111.51 137.867C114.28 133.071 118.264 129.089 123.062 126.321L323.664 10.499C325.002 9.72808 326.495 9.26672 328.034 9.14883C329.574 9.03093 331.12 9.2595 332.559 9.81774C333.999 10.376 335.295 11.2497 336.352 12.3746C337.41 13.4996 338.202 14.8472 338.67 16.3184C338.131 13.9676 337.122 11.7501 335.704 9.79952C334.286 7.84893 332.487 6.20561 330.417 4.96854L329.702 4.54267C324.71 1.56978 319.008 0.000554107 313.198 0.000812327C311.34 -0.0226002 309.511 0.460475 307.907 1.39816L107.299 117.22C102.502 119.989 98.5184 123.971 95.7485 128.767C92.9786 133.563 91.5201 139.003 91.5195 144.542V578.374C91.5195 580.188 91.9969 581.969 92.9036 583.54C93.8103 585.11 95.1145 586.414 96.6849 587.321C98.2554 588.228 100.037 588.705 101.85 588.705C103.664 588.705 105.445 588.228 107.016 587.321L107.276 587.171L107.282 153.643Z"
            fill="#37474F"
          />
          <path
            d="M323.385 480.601L122.777 596.414C121.207 597.32 119.427 597.797 117.614 597.798C115.802 597.798 114.021 597.322 112.451 596.417C110.881 595.511 109.577 594.209 108.67 592.64C107.762 591.071 107.284 589.291 107.282 587.478V153.644C107.282 148.105 108.741 142.665 111.511 137.869C114.281 133.072 118.265 129.09 123.062 126.322L323.664 10.5002C325.235 9.59392 327.016 9.11695 328.829 9.11719C330.642 9.11743 332.423 9.59488 333.994 10.5015C335.564 11.4082 336.868 12.7122 337.774 14.2824C338.681 15.8526 339.158 17.6338 339.159 19.447V453.279C339.159 458.817 337.701 464.257 334.932 469.053C332.163 473.849 328.181 477.832 323.385 480.601Z"
            fill="#455A64"
          />
          <path
            d="M107.282 587.476V153.642C107.284 148.913 108.349 144.246 110.4 139.986L94.8885 130.381C92.6786 134.774 91.5269 139.623 91.5254 144.541V581.997C91.5257 583.718 91.9731 585.41 92.824 586.907C93.6748 588.404 94.8998 589.654 96.379 590.535L104.375 595.297C107.147 596.947 110.312 597.818 113.537 597.818H117.488C114.768 597.783 112.172 596.677 110.262 594.741C108.352 592.806 107.281 590.195 107.282 587.476Z"
            fill="#263238"
          />
          <path
            d="M316.48 52.1987V416.84C316.481 421.73 315.194 426.534 312.749 430.769C310.304 435.004 306.787 438.521 302.552 440.966L125.404 543.248C124.068 544.024 122.555 544.444 121.011 544.467C121.524 545.647 122.281 546.705 123.231 547.572C124.182 548.439 125.305 549.096 126.527 549.499C127.749 549.901 129.042 550.042 130.322 549.91C131.602 549.779 132.839 549.378 133.954 548.735L311.102 446.453C315.336 444.008 318.853 440.491 321.298 436.256C323.743 432.021 325.03 427.217 325.029 422.327V61.2977C325.027 58.9786 324.142 56.7473 322.554 55.0573C320.966 53.3672 318.794 52.3451 316.48 52.1987Z"
            fill="#37474F"
          />
          <path
            d="M121.01 544.461C122.555 544.437 124.068 544.018 125.404 543.242L302.551 440.96C306.786 438.515 310.303 434.998 312.748 430.763C315.193 426.528 316.48 421.724 316.479 416.834V52.1982C314.701 52.2127 312.947 52.6225 311.346 53.3979L134.198 155.68C129.964 158.125 126.447 161.642 124.002 165.877C121.557 170.112 120.269 174.916 120.269 179.806V540.835C120.262 542.102 120.521 543.357 121.029 544.518L121.01 544.461Z"
            fill="#022859"
          />
          <g opacity="0.5">
            <path
              d="M121.01 544.461C122.555 544.437 124.068 544.018 125.404 543.242L302.551 440.96C306.786 438.515 310.303 434.998 312.748 430.763C315.193 426.528 316.48 421.724 316.479 416.834V52.1982C314.701 52.2127 312.947 52.6225 311.346 53.3979L134.198 155.68C129.964 158.125 126.447 161.642 124.002 165.877C121.557 170.112 120.269 174.916 120.269 179.806V540.835C120.262 542.102 120.521 543.357 121.029 544.518L121.01 544.461Z"
              fill="white"
            />
          </g>
          <path
            d="M195.146 102.228C195.086 103.335 194.765 104.412 194.211 105.372C193.657 106.332 192.884 107.148 191.956 107.753C190.193 108.77 188.766 107.943 188.766 105.911C188.826 104.804 189.146 103.727 189.7 102.767C190.254 101.807 191.027 100.991 191.956 100.386C193.716 99.3691 195.146 100.194 195.146 102.228Z"
            fill="#263238"
          />
          <path
            d="M207.013 95.3769C206.953 96.4837 206.633 97.5607 206.078 98.5206C205.524 99.4804 204.751 100.296 203.823 100.902C202.061 101.919 200.633 101.092 200.633 99.0613C200.692 97.9541 201.012 96.8766 201.567 95.9164C202.121 94.9561 202.894 94.1401 203.823 93.5347C205.583 92.5175 207.013 93.3426 207.013 95.3769Z"
            fill="#263238"
          />
          <path
            d="M254.913 71.4065L216.329 93.6842C214.808 94.5645 213.564 93.6291 213.564 91.5929C213.58 90.5583 213.838 89.5418 214.319 88.6252C214.799 87.7085 215.487 86.9174 216.329 86.3153L254.913 64.0376C256.434 63.1574 257.675 64.0927 257.675 66.1289C257.659 67.1633 257.401 68.1796 256.921 69.0961C256.442 70.0127 255.754 70.804 254.913 71.4065Z"
            fill="#263238"
          />
          <path
            d="M248.384 494.288C250.688 494.288 252.186 496.733 252.186 500.514C252.186 506.459 248.468 513.632 244.067 516.168L225.612 526.815C224.787 527.336 223.839 527.633 222.863 527.674C220.559 527.674 219.07 525.229 219.07 521.446C219.07 515.503 222.787 508.328 227.188 505.793L245.643 495.138C246.469 494.617 247.416 494.322 248.392 494.28M248.392 492.704C247.14 492.744 245.92 493.113 244.856 493.772L226.401 504.419C221.481 507.259 217.492 514.875 217.492 521.436C217.492 526.322 219.703 529.231 222.863 529.231C224.116 529.191 225.336 528.822 226.401 528.161L244.856 517.514C249.774 514.674 253.762 507.058 253.762 500.495C253.762 495.611 251.551 492.7 248.392 492.7V492.704Z"
            fill="#263238"
          />
          <path
            d="M146.402 205.361V614.085C146.402 621.488 149.123 626.463 153.281 628.094L153.399 628.134L153.418 628.153L171.079 637.83L170.982 622.109L169.02 198.288L150.366 188.747C147.873 193.938 146.521 199.603 146.402 205.361Z"
            fill="#E6E6E6"
          />
          <path
            d="M172.04 639.439L152.922 628.963C148.184 627.007 145.452 621.482 145.452 614.083V205.359C145.575 199.463 146.957 193.662 149.505 188.344L149.924 187.45L169.969 197.703V198.273L171.931 622.096L172.04 639.439ZM153.874 627.319L170.12 636.218L170.032 622.113L168.072 198.869L150.823 190.045C148.641 194.862 147.46 200.072 147.353 205.359V614.083C147.353 620.76 149.701 625.667 153.627 627.201L153.87 627.315L153.874 627.319Z"
            fill="#E6E6E6"
          />
          <path
            d="M150.366 188.741L169.02 198.282L368.655 82.1466L381.984 74.3898L363.564 64.0133L363.039 63.7015V63.6825C360.104 61.9145 356.258 62.0304 352.022 64.4791L163.055 173.592C157.421 177.277 153.006 182.548 150.366 188.741Z"
            fill="#E0E0E0"
          />
          <path
            d="M169.021 199.235C168.87 199.235 168.722 199.2 168.587 199.131L149.935 189.591C149.716 189.479 149.549 189.287 149.469 189.054C149.389 188.821 149.402 188.567 149.506 188.344C152.225 181.971 156.775 176.548 162.58 172.764L351.555 63.6583C355.927 61.1317 360.184 60.8484 363.532 62.8713C363.582 62.9003 363.628 62.9348 363.671 62.9739L364.051 63.1983L382.454 73.5634C382.6 73.6455 382.722 73.7648 382.807 73.9091C382.892 74.0534 382.937 74.2176 382.938 74.3852C382.94 74.5527 382.896 74.7175 382.813 74.863C382.73 75.0084 382.61 75.1294 382.466 75.2136L169.498 199.106C169.353 199.191 169.189 199.235 169.021 199.235ZM151.625 188.319L168.99 197.201L380.072 74.4056L362.557 64.5196C362.506 64.4897 362.458 64.4554 362.414 64.4169C359.699 62.8598 356.186 63.1735 352.5 65.3028L163.525 174.408C158.308 177.81 154.178 182.638 151.625 188.319Z"
            fill="#E0E0E0"
          />
          <path
            d="M164.707 215.635V622.513C164.707 628.924 166.747 633.53 170.011 635.686L171.08 636.27C173.918 637.61 177.473 637.319 181.346 635.083L272.685 582.342L370.307 523.596C375.311 520.468 379.454 516.141 382.362 511.007C385.27 505.873 386.85 500.094 386.96 494.195V87.3472C386.96 81.1475 385.059 76.6589 381.986 74.406C381.468 74.0152 380.899 73.6955 380.296 73.4554C378.645 72.873 376.879 72.6891 375.143 72.9187C373.408 73.1483 371.751 73.785 370.307 74.7768L181.333 185.721C175.996 188.501 171.681 192.907 169.013 198.301C166.304 203.686 164.833 209.608 164.707 215.635Z"
            fill="#FAFAFA"
          />
          <path
            d="M370.309 523.599C331.424 546.793 230.268 607.168 180.193 637.328C178.701 638.226 176.997 638.712 175.255 638.735C173.513 638.759 171.797 638.319 170.281 637.461C168.765 636.603 167.504 635.358 166.627 633.852C165.751 632.347 165.29 630.636 165.292 628.894V210.509C165.293 205.748 166.539 201.07 168.907 196.94C171.275 192.81 174.682 189.371 178.79 186.965L371.216 74.1845C372.71 73.3083 374.409 72.8423 376.142 72.8336C377.874 72.825 379.578 73.274 381.081 74.1352C382.584 74.9964 383.833 76.2394 384.702 77.7383C385.57 79.2372 386.028 80.9389 386.028 82.6713V495.905C386.03 501.487 384.582 506.974 381.827 511.828C379.071 516.683 375.102 520.739 370.309 523.599Z"
            fill="#FAFAFA"
          />
          <path
            d="M369.828 522.771C339.302 540.981 308.783 559.204 278.271 577.44C260.208 588.237 242.147 599.042 224.088 609.855C215.839 614.798 207.593 619.741 199.35 624.684L188.534 631.18C185.207 633.182 181.661 636.03 177.987 637.306C171.888 639.425 166.389 634.547 166.234 628.522C166.207 627.551 166.234 626.576 166.234 625.604V242.021C166.234 231.804 166.209 221.588 166.234 211.371C166.163 206.539 167.383 201.776 169.768 197.574C172.153 193.371 175.616 189.881 179.8 187.464C184.211 184.855 188.643 182.281 193.063 179.692L255.23 143.256L328.895 100.085C342.866 91.8964 356.804 83.6454 370.813 75.518C375.15 73.0008 380.612 73.248 383.627 77.7898C384.703 79.6005 385.206 81.694 385.07 83.7956C385.081 87.4401 385.07 91.0865 385.07 94.7329V494.306C385.245 499.971 383.928 505.582 381.252 510.578C378.576 515.573 374.634 519.778 369.821 522.771C368.781 523.409 369.733 525.052 370.781 524.413C375.848 521.281 380.008 516.879 382.848 511.643C385.688 506.407 387.109 500.52 386.971 494.565V112.969C386.971 103.033 387.078 93.0922 386.971 83.1587C387.008 81.1743 386.505 79.2173 385.516 77.4965C384.527 75.7757 383.089 74.3559 381.356 73.3885C379.623 72.4211 377.66 71.9425 375.676 72.0038C373.692 72.0651 371.763 72.664 370.093 73.7366C365.46 76.3982 360.864 79.1453 356.25 81.8488L292.371 119.286L218.036 162.849C204.894 170.551 191.707 178.188 178.604 185.958C174.207 188.544 170.571 192.245 168.064 196.688C165.557 201.131 164.268 206.158 164.329 211.259C164.319 214.681 164.329 218.103 164.329 221.525V626.899C164.329 627.553 164.308 628.211 164.329 628.863C164.35 630.562 164.767 632.233 165.548 633.743C166.329 635.253 167.453 636.559 168.828 637.557C170.203 638.556 171.793 639.22 173.47 639.495C175.147 639.771 176.866 639.65 178.488 639.144C182.078 637.944 185.466 635.249 188.698 633.304L199.724 626.678C207.942 621.743 216.164 616.812 224.388 611.887C260.339 590.341 296.311 568.835 332.305 547.37C345.127 539.713 357.949 532.061 370.773 524.413C370.97 524.278 371.109 524.073 371.161 523.84C371.214 523.607 371.177 523.363 371.058 523.156C370.939 522.949 370.747 522.794 370.519 522.723C370.291 522.652 370.044 522.668 369.828 522.771Z"
            fill="#EBEBEB"
          />
          <path
            d="M178.781 186.965L371.218 74.1844C372.712 73.3086 374.411 72.843 376.143 72.8346C377.875 72.8262 379.579 73.2753 381.082 74.1365C382.584 74.9976 383.833 76.2404 384.702 77.739C385.57 79.2377 386.028 80.9391 386.028 82.6712V100.823H385.971L165.29 228.235V210.509C165.29 205.749 166.535 201.071 168.902 196.941C171.268 192.811 174.674 189.372 178.781 186.965Z"
            fill="#EBEBEB"
          />
          <path
            d="M310.996 285.869C330.512 252.066 330.513 215.53 310.997 204.263C291.481 192.995 259.84 211.264 240.324 245.066C220.808 278.869 220.808 315.405 240.323 326.673C259.839 337.94 291.48 319.672 310.996 285.869Z"
            fill="#022859"
          />
          <path
            opacity="0.5"
            d="M310.996 285.869C330.512 252.066 330.513 215.53 310.997 204.263C291.481 192.995 259.84 211.264 240.324 245.066C220.808 278.869 220.808 315.405 240.323 326.673C259.839 337.94 291.48 319.672 310.996 285.869Z"
            fill="white"
          />
          <path
            d="M266.696 265.694C266.101 265.694 265.531 265.457 265.11 265.036C264.69 264.616 264.454 264.045 264.454 263.451V248.671C264.619 245.167 265.62 241.753 267.372 238.715C269.125 235.676 271.579 233.101 274.53 231.203C275.733 230.251 277.194 229.683 278.724 229.571C280.255 229.459 281.783 229.809 283.112 230.576C284.44 231.343 285.508 232.492 286.176 233.873C286.844 235.254 287.082 236.804 286.859 238.321V253.099C286.859 253.694 286.623 254.264 286.202 254.685C285.782 255.105 285.212 255.341 284.617 255.341C284.022 255.341 283.452 255.105 283.031 254.685C282.611 254.264 282.374 253.694 282.374 253.099V238.321C282.599 237.603 282.572 236.829 282.298 236.128C282.024 235.427 281.519 234.84 280.867 234.464C280.215 234.088 279.455 233.945 278.711 234.058C277.967 234.172 277.283 234.536 276.774 235.089C274.507 236.595 272.619 238.605 271.259 240.961C269.898 243.318 269.102 245.957 268.931 248.673V263.453C268.931 264.046 268.695 264.615 268.276 265.035C267.857 265.455 267.289 265.692 266.696 265.694Z"
            fill="#37474F"
          />
          <path
            d="M293.772 243.573C293.256 243.363 292.696 243.286 292.143 243.348C291.59 243.41 291.061 243.608 290.604 243.926L260.712 261.185C259.403 262.013 258.316 263.148 257.545 264.491C256.339 266.429 255.671 268.653 255.61 270.934V296.813C255.542 297.54 255.64 298.272 255.898 298.955C256.156 299.638 256.567 300.253 257.098 300.754C257.26 300.874 257.435 300.975 257.619 301.054C258.128 301.244 258.674 301.308 259.212 301.242C259.751 301.176 260.265 300.981 260.712 300.674L290.604 283.417C292.158 282.304 293.429 280.842 294.315 279.149C295.201 277.456 295.678 275.579 295.707 273.668V247.784C295.811 246.971 295.685 246.145 295.343 245.401C295.001 244.656 294.456 244.023 293.772 243.573Z"
            fill="#022859"
          />
          <path
            d="M279.058 270.539L281.938 278.824L271.809 284.67L274.345 274.438L274.702 272.989C272.991 273.039 271.809 271.716 271.809 269.377C271.822 268.439 271.981 267.508 272.282 266.619C273.073 264.145 274.695 262.021 276.873 260.607C279.67 258.993 281.938 260.297 281.938 263.531C281.801 266.113 280.777 268.568 279.039 270.482L279.058 270.539Z"
            fill="#455A64"
          />
          <path
            d="M274.345 274.436L274.702 272.987C272.991 273.037 271.809 271.714 271.809 269.375C271.822 268.437 271.981 267.506 272.282 266.617L279.058 270.527L281.938 278.813L274.345 274.436Z"
            fill="#37474F"
          />
          <path
            d="M349.375 361.156L201.946 446.275C195.847 449.796 190.902 446.058 190.902 437.925V415.59C190.902 407.459 195.845 398.012 201.946 394.488L349.375 309.369C355.474 305.848 360.419 309.586 360.419 317.717V340.052C360.419 348.187 355.474 357.626 349.375 361.156Z"
            fill="#022859"
          />
          <path
            d="M228.477 392.481H225.625V416.12H228.477V392.481Z"
            fill="#FAFAFA"
          />
          <path
            d="M236.575 397.158L216.103 408.98L217.529 411.45L238.001 399.628L236.575 397.158Z"
            fill="#FAFAFA"
          />
          <path
            d="M220.525 398.886L219.1 401.356L233.576 409.714L235.002 407.245L220.525 398.886Z"
            fill="#FAFAFA"
          />
          <path
            d="M233.054 391.051L218.575 416.123L221.045 417.549L235.523 392.477L233.054 391.051Z"
            fill="#FAFAFA"
          />
          <path
            d="M277.087 366.007H274.235V389.648H277.087V366.007Z"
            fill="#FAFAFA"
          />
          <path
            d="M285.182 370.681L264.711 382.502L266.137 384.972L286.608 373.15L285.182 370.681Z"
            fill="#FAFAFA"
          />
          <path
            d="M269.135 372.412L267.709 374.882L282.184 383.239L283.61 380.77L269.135 372.412Z"
            fill="#FAFAFA"
          />
          <path
            d="M281.665 364.576L267.187 389.648L269.656 391.075L284.135 366.002L281.665 364.576Z"
            fill="#FAFAFA"
          />
          <path
            d="M325.696 339.528H322.845V363.167H325.696V339.528Z"
            fill="#FAFAFA"
          />
          <path
            d="M333.797 344.207L313.324 356.027L314.75 358.497L335.223 346.677L333.797 344.207Z"
            fill="#FAFAFA"
          />
          <path
            d="M317.748 345.938L316.322 348.407L330.797 356.765L332.223 354.295L317.748 345.938Z"
            fill="#FAFAFA"
          />
          <path
            d="M330.276 338.099L315.8 363.172L318.269 364.598L332.746 339.525L330.276 338.099Z"
            fill="#FAFAFA"
          />
          <path
            d="M353.761 391.93C355.733 391.93 356.613 394.878 356.613 397.801V420.135C356.613 426.926 352.43 435.082 347.47 437.942L200.045 523.06C199.3 523.538 198.446 523.82 197.562 523.878C195.589 523.878 194.71 520.927 194.71 518.005V495.67C194.71 488.879 198.893 480.725 203.853 477.864L351.282 392.745C352.028 392.267 352.883 391.987 353.767 391.93M353.767 388.127C352.214 388.179 350.702 388.638 349.383 389.458L201.946 474.571C195.847 478.092 190.902 487.539 190.902 495.674V518.009C190.902 524.064 193.644 527.684 197.556 527.684C199.109 527.632 200.621 527.173 201.94 526.353L349.369 441.234C355.468 437.713 360.413 428.267 360.413 420.132V397.801C360.413 391.745 357.672 388.127 353.759 388.127H353.767Z"
            fill="#022859"
          />
          <path
            d="M257.418 477.444L251.002 465.196L259.255 460.873L260.373 463.008L254.71 465.975L256.239 468.893L261.478 466.149L262.596 468.284L257.357 471.028L258.889 473.953L264.576 470.974L265.695 473.109L257.418 477.444ZM267.448 465.423L270.229 470.733L267.682 472.068L262.87 462.882L265.298 461.61L266.147 463.231L266.255 463.174C266.178 462.533 266.298 461.932 266.613 461.371C266.927 460.805 267.424 460.344 268.106 459.987C268.744 459.652 269.373 459.501 269.994 459.531C270.614 459.562 271.192 459.767 271.727 460.148C272.259 460.524 272.712 461.069 273.086 461.783L276.15 467.632L273.602 468.966L270.777 463.572C270.486 463.008 270.113 462.644 269.657 462.482C269.199 462.315 268.715 462.366 268.204 462.633C267.861 462.813 267.597 463.045 267.411 463.331C267.229 463.614 267.139 463.936 267.139 464.296C267.142 464.65 267.245 465.026 267.448 465.423ZM278.232 454.835L279.235 456.748L273.703 459.646L272.7 457.732L278.232 454.835ZM272.803 454.874L275.351 453.539L279.837 462.103C279.96 462.338 280.092 462.503 280.233 462.597C280.371 462.687 280.518 462.724 280.673 462.709C280.832 462.692 280.997 462.639 281.168 462.549C281.288 462.486 281.402 462.414 281.511 462.331C281.618 462.245 281.701 462.179 281.758 462.133L283.152 463.819C283.045 463.926 282.89 464.066 282.686 464.239C282.484 464.416 282.22 464.597 281.896 464.782C281.294 465.128 280.713 465.328 280.153 465.383C279.596 465.435 279.087 465.331 278.625 465.07C278.163 464.809 277.776 464.377 277.465 463.773L272.803 454.874ZM288.885 461.189C287.94 461.684 287.027 461.919 286.144 461.893C285.264 461.862 284.456 461.589 283.719 461.075C282.981 460.558 282.358 459.815 281.85 458.846C281.355 457.901 281.104 456.976 281.097 456.07C281.09 455.164 281.315 454.337 281.772 453.59C282.233 452.84 282.914 452.23 283.815 451.758C284.421 451.44 285.036 451.242 285.661 451.164C286.287 451.08 286.897 451.129 287.491 451.311C288.088 451.491 288.65 451.816 289.176 452.288C289.7 452.755 290.167 453.379 290.576 454.161L290.943 454.86L283.186 458.923L282.359 457.345L287.718 454.538C287.526 454.171 287.276 453.888 286.968 453.688C286.66 453.489 286.323 453.383 285.956 453.372C285.592 453.355 285.224 453.443 284.853 453.637C284.466 453.84 284.17 454.109 283.965 454.445C283.762 454.775 283.655 455.134 283.644 455.52C283.632 455.903 283.718 456.277 283.904 456.642L284.691 458.143C284.929 458.598 285.218 458.946 285.559 459.19C285.904 459.431 286.279 459.56 286.683 459.576C287.088 459.593 287.504 459.489 287.931 459.266C288.214 459.117 288.452 458.942 288.646 458.739C288.839 458.536 288.978 458.311 289.062 458.064C289.146 457.816 289.171 457.554 289.137 457.277L291.575 456.198C291.752 456.827 291.766 457.45 291.617 458.067C291.469 458.677 291.166 459.253 290.707 459.793C290.25 460.327 289.643 460.792 288.885 461.189ZM294.67 457.93L289.858 448.744L292.328 447.451L293.168 449.053L293.263 449.003C293.132 448.345 293.188 447.768 293.43 447.27C293.67 446.768 294.047 446.382 294.562 446.113C294.689 446.046 294.831 445.982 294.987 445.921C295.143 445.859 295.284 445.813 295.41 445.783L296.594 448.043C296.456 448.07 296.273 448.125 296.048 448.208C295.822 448.291 295.621 448.378 295.446 448.47C295.071 448.666 294.779 448.923 294.569 449.241C294.362 449.553 294.247 449.898 294.226 450.275C294.209 450.649 294.299 451.024 294.495 451.399L297.218 456.596L294.67 457.93Z"
            fill="#022859"
          />
          <path
            d="M570.752 138.061C570.84 139.565 571.285 141.026 572.048 142.325C572.812 143.623 573.874 144.721 575.146 145.529C577.571 146.903 579.539 145.787 579.539 143.038C579.451 141.534 579.007 140.072 578.242 138.774C577.478 137.475 576.415 136.377 575.142 135.571C572.72 134.196 570.752 135.31 570.752 138.061Z"
            fill="#455A64"
          />
          <path
            d="M511.865 155.772C508.003 155.637 504.241 154.51 500.941 152.498L487.002 144.601C486.889 144.542 486.789 144.461 486.708 144.362C486.627 144.264 486.567 144.15 486.531 144.028C486.495 143.905 486.484 143.777 486.498 143.651C486.513 143.524 486.553 143.402 486.615 143.291C486.678 143.18 486.762 143.083 486.863 143.005C486.964 142.927 487.08 142.871 487.203 142.839C487.327 142.807 487.455 142.8 487.581 142.818C487.707 142.837 487.828 142.881 487.937 142.947L501.876 150.844C507.888 154.251 513.473 154.799 517.603 152.392C521.643 150.036 523.877 145.07 523.877 138.409C523.877 131.04 526.437 125.481 531.088 122.779C535.829 120.019 542.086 120.565 548.706 124.317L571.232 137.08C571.443 137.208 571.596 137.414 571.658 137.652C571.72 137.891 571.687 138.145 571.566 138.36C571.444 138.575 571.244 138.734 571.007 138.804C570.77 138.873 570.516 138.848 570.297 138.734L547.765 125.971C541.753 122.566 536.167 122.017 532.04 124.424C527.998 126.778 525.766 131.745 525.766 138.409C525.766 145.776 523.207 151.325 518.557 154.034C516.522 155.202 514.211 155.802 511.865 155.772Z"
            fill="#455A64"
          />
          <path
            d="M481.249 140.338C481.319 141.555 481.678 142.737 482.296 143.787C482.914 144.838 483.773 145.726 484.802 146.378C486.764 147.49 488.354 146.589 488.354 144.365C488.283 143.149 487.925 141.966 487.307 140.916C486.69 139.866 485.831 138.978 484.802 138.325C482.838 137.215 481.249 138.116 481.249 140.338Z"
            fill="#455A64"
          />
          <path
            d="M570.752 304.237C570.84 305.741 571.285 307.203 572.048 308.501C572.812 309.799 573.874 310.898 575.146 311.705C577.571 313.08 579.539 311.966 579.539 309.217C579.451 307.713 579.007 306.251 578.243 304.953C577.479 303.655 576.417 302.556 575.146 301.749C572.72 300.372 570.752 301.488 570.752 304.237Z"
            fill="#455A64"
          />
          <path
            d="M570.921 306.316C570.757 306.316 570.596 306.273 570.453 306.192L547.928 293.43C534.753 285.964 524.036 267.741 524.036 252.81C524.036 238.488 513.751 221.009 501.11 213.836L487.002 205.851C486.889 205.792 486.789 205.711 486.708 205.612C486.627 205.514 486.567 205.4 486.531 205.278C486.495 205.156 486.484 205.028 486.498 204.901C486.513 204.775 486.553 204.652 486.615 204.541C486.678 204.43 486.762 204.333 486.863 204.256C486.964 204.178 487.08 204.121 487.203 204.089C487.327 204.057 487.455 204.05 487.581 204.069C487.707 204.087 487.828 204.131 487.937 204.197L502.046 212.182C515.221 219.648 525.937 237.87 525.937 252.802C525.937 267.124 536.223 284.605 548.863 291.776L571.39 304.538C571.573 304.642 571.716 304.803 571.798 304.997C571.879 305.19 571.894 305.405 571.841 305.608C571.787 305.811 571.668 305.991 571.501 306.119C571.335 306.247 571.131 306.316 570.921 306.316Z"
            fill="#455A64"
          />
          <path
            d="M481.249 201.24C481.319 202.456 481.678 203.639 482.296 204.689C482.914 205.739 483.773 206.627 484.802 207.28C486.764 208.39 488.354 207.489 488.354 205.266C488.283 204.05 487.924 202.868 487.307 201.818C486.689 200.768 485.831 199.879 484.802 199.226C482.838 198.12 481.249 199.015 481.249 201.24Z"
            fill="#455A64"
          />
          <path
            d="M706.119 120.142L613 67.402C612.024 66.6744 610.839 66.2802 609.62 66.2778C608.402 66.2754 607.216 66.6649 606.236 67.3887L598.19 72.9534L603.677 79.7367V177.884C603.677 184.749 607.86 192.724 612.993 195.698L703.8 247.103L704.227 254.413L712.703 248.603C713.678 247.689 714.431 246.563 714.904 245.313C715.377 244.063 715.558 242.721 715.433 241.39V137.956C715.446 131.089 711.264 123.115 706.119 120.142Z"
            fill="#022859"
          />
          <path
            opacity="0.3"
            d="M706.119 120.142L613 67.402C612.024 66.6744 610.839 66.2802 609.62 66.2778C608.402 66.2754 607.216 66.6649 606.236 67.3887L598.19 72.9534L603.677 79.7367V177.884C603.677 184.749 607.86 192.724 612.993 195.698L703.8 247.103L704.227 254.413L712.703 248.603C713.678 247.689 714.431 246.563 714.904 245.313C715.377 244.063 715.558 242.721 715.433 241.39V137.956C715.446 131.089 711.264 123.115 706.119 120.142Z"
            fill="black"
          />
          <path
            d="M698.203 253.886L605.084 201.146C599.936 198.173 595.769 190.197 595.769 183.332V79.8981C595.769 73.0331 599.951 69.8771 605.084 72.8506L698.203 125.591C703.351 128.564 707.518 136.537 707.518 143.402V246.839C707.526 253.704 703.351 256.865 698.203 253.886Z"
            fill="#024873"
          />
          <path
            d="M678.637 164.378C678.428 164.379 678.224 164.31 678.057 164.182C677.891 164.055 677.771 163.876 677.717 163.673C675.731 156.336 672.655 149.337 668.592 142.912C668.462 142.7 668.421 142.445 668.478 142.202C668.535 141.96 668.684 141.749 668.894 141.616C669.104 141.482 669.358 141.437 669.602 141.489C669.845 141.541 670.059 141.686 670.196 141.893C674.36 148.484 677.511 155.661 679.546 163.186C679.612 163.43 679.578 163.689 679.453 163.908C679.327 164.126 679.12 164.286 678.877 164.352C678.798 164.37 678.718 164.379 678.637 164.378Z"
            fill="white"
          />
          <path
            d="M680.776 183.699H680.711C680.46 183.682 680.225 183.567 680.059 183.377C679.893 183.188 679.809 182.941 679.825 182.689C679.892 181.666 679.926 180.609 679.926 179.526C679.915 176.275 679.628 173.032 679.068 169.83C679.026 169.581 679.084 169.325 679.23 169.119C679.375 168.913 679.597 168.774 679.846 168.731C680.095 168.688 680.35 168.746 680.556 168.892C680.762 169.038 680.902 169.26 680.945 169.509C681.521 172.819 681.816 176.173 681.827 179.533C681.827 180.661 681.792 181.757 681.722 182.82C681.704 183.059 681.597 183.282 681.421 183.445C681.246 183.608 681.015 183.698 680.776 183.699Z"
            fill="white"
          />
          <path
            d="M622.623 152.153C622.385 152.154 622.155 152.065 621.979 151.905C621.803 151.744 621.694 151.523 621.673 151.286C621.528 149.636 621.456 147.991 621.456 146.398C621.456 137.176 623.941 129.558 628.454 124.945C628.542 124.856 628.646 124.785 628.761 124.736C628.875 124.687 628.999 124.661 629.124 124.66C629.249 124.658 629.373 124.682 629.489 124.728C629.604 124.775 629.71 124.844 629.799 124.931C629.889 125.019 629.96 125.123 630.009 125.238C630.058 125.352 630.084 125.476 630.085 125.601C630.086 125.726 630.063 125.85 630.016 125.965C629.97 126.081 629.901 126.187 629.814 126.276C625.65 130.533 623.35 137.683 623.35 146.4C623.35 147.938 623.42 149.527 623.559 151.122C623.58 151.373 623.502 151.622 623.34 151.815C623.178 152.008 622.946 152.129 622.696 152.151C622.672 152.153 622.647 152.154 622.623 152.153Z"
            fill="white"
          />
          <path
            d="M664.666 136.773C664.525 136.773 664.386 136.742 664.259 136.682C664.131 136.622 664.019 136.534 663.93 136.425C660.404 131.945 656.081 128.156 651.177 125.248C644.861 121.67 638.935 120.982 634.047 123.254C633.819 123.36 633.557 123.372 633.32 123.285C633.083 123.199 632.89 123.022 632.784 122.793C632.678 122.564 632.666 122.303 632.753 122.066C632.839 121.829 633.016 121.636 633.245 121.53C638.717 118.99 645.238 119.699 652.112 123.594C657.22 126.618 661.726 130.56 665.401 135.222C665.515 135.361 665.587 135.53 665.608 135.708C665.63 135.886 665.601 136.067 665.523 136.23C665.446 136.392 665.325 136.529 665.173 136.626C665.021 136.722 664.845 136.773 664.666 136.773Z"
            fill="white"
          />
          <path
            d="M629.176 152.871C628.931 152.871 628.696 152.777 628.518 152.607C628.341 152.438 628.236 152.207 628.226 151.962C628.201 151.371 628.191 150.783 628.191 150.202C628.191 143.447 629.845 137.937 632.973 134.266C633.136 134.074 633.369 133.955 633.621 133.934C633.872 133.914 634.121 133.994 634.313 134.158C634.505 134.321 634.625 134.554 634.645 134.805C634.665 135.057 634.585 135.306 634.422 135.498C631.589 138.821 630.093 143.907 630.093 150.202C630.093 150.759 630.102 151.319 630.127 151.88C630.132 152.005 630.113 152.13 630.07 152.247C630.027 152.365 629.961 152.472 629.877 152.564C629.792 152.656 629.69 152.731 629.577 152.783C629.464 152.836 629.341 152.866 629.216 152.871H629.176Z"
            fill="white"
          />
          <path
            d="M636.635 133.301C636.428 133.301 636.226 133.233 636.061 133.109C635.896 132.984 635.776 132.808 635.719 132.609C635.663 132.41 635.673 132.198 635.749 132.005C635.824 131.812 635.96 131.649 636.136 131.54C638.556 130.072 641.396 129.453 644.207 129.782C644.458 129.807 644.688 129.931 644.848 130.126C645.007 130.321 645.083 130.572 645.058 130.823C645.032 131.074 644.909 131.304 644.713 131.464C644.518 131.623 644.268 131.699 644.017 131.673C641.619 131.384 639.193 131.908 637.127 133.16C636.979 133.251 636.809 133.3 636.635 133.301Z"
            fill="white"
          />
          <path
            d="M678.637 195.929C678.448 195.929 678.263 195.873 678.106 195.767C677.948 195.661 677.826 195.511 677.755 195.336L676.641 192.579C674.434 187.25 673.265 181.548 673.196 175.78C673.196 159.657 663.31 140.999 651.177 134.12C650.966 133.992 650.814 133.787 650.751 133.548C650.689 133.309 650.722 133.055 650.844 132.841C650.965 132.626 651.166 132.467 651.402 132.397C651.639 132.327 651.894 132.352 652.112 132.466C664.789 139.647 675.097 159.046 675.097 175.71C675.158 181.258 676.281 186.744 678.405 191.87L679.519 194.627C679.566 194.742 679.59 194.866 679.588 194.991C679.587 195.116 679.562 195.24 679.513 195.355C679.464 195.47 679.393 195.574 679.303 195.661C679.214 195.749 679.109 195.818 678.993 195.864C678.88 195.909 678.759 195.931 678.637 195.929Z"
            fill="white"
          />
          <path
            d="M634.993 185C634.798 185.001 634.608 184.941 634.448 184.829C634.288 184.718 634.167 184.56 634.1 184.377C631.021 175.391 629.038 166.067 628.193 156.607C628.175 156.356 628.257 156.108 628.422 155.917C628.587 155.727 628.82 155.61 629.071 155.591C629.32 155.583 629.564 155.668 629.753 155.831C629.942 155.994 630.062 156.222 630.09 156.47C630.919 165.755 632.865 174.906 635.885 183.725C635.937 183.868 635.954 184.022 635.934 184.174C635.914 184.325 635.858 184.469 635.771 184.594C635.683 184.72 635.567 184.822 635.432 184.892C635.296 184.963 635.146 185 634.993 185Z"
            fill="white"
          />
          <path
            d="M673.051 202.34C672.857 202.339 672.668 202.28 672.509 202.168C672.35 202.057 672.229 201.9 672.162 201.718L669.627 194.891C667.053 188.217 665.668 181.144 665.536 173.992V166.516C665.536 157.646 659.167 146.82 651.336 142.385C647.68 140.315 644.302 139.969 641.831 141.413C639.409 142.824 638.076 145.83 638.076 149.877V156.48C638.288 167.231 640.442 177.854 644.435 187.838L647.574 196.013C647.665 196.248 647.658 196.51 647.555 196.74C647.453 196.971 647.263 197.151 647.027 197.242C646.792 197.332 646.53 197.326 646.3 197.223C646.069 197.121 645.889 196.931 645.798 196.695L642.659 188.52C638.582 178.319 636.383 167.464 636.169 156.48V149.881C636.169 145.128 637.838 141.539 640.869 139.773C643.958 137.974 648.006 138.318 652.276 140.735C660.641 145.472 667.439 157.039 667.439 166.52V173.995C667.572 180.921 668.916 187.771 671.411 194.233L673.945 201.062C673.988 201.18 674.007 201.305 674.002 201.43C673.996 201.555 673.966 201.678 673.913 201.791C673.86 201.904 673.785 202.006 673.693 202.091C673.601 202.175 673.492 202.24 673.375 202.283C673.271 202.321 673.162 202.34 673.051 202.34Z"
            fill="white"
          />
          <path
            d="M664.665 205.064C664.46 205.064 664.26 204.997 664.096 204.875C663.932 204.752 663.812 204.58 663.754 204.383L662.423 199.912C660.001 192.037 658.723 183.855 658.63 175.617V164.052C658.476 161.44 657.703 158.903 656.376 156.648C655.049 154.393 653.206 152.486 650.997 151.083C650.309 150.578 649.501 150.262 648.653 150.168C647.805 150.073 646.947 150.202 646.165 150.543C645.503 151.035 644.982 151.692 644.655 152.449C644.327 153.206 644.205 154.035 644.299 154.854C644.299 167.691 648.21 182.505 655.309 196.564L657.971 201.855C658.032 201.967 658.069 202.089 658.082 202.216C658.094 202.343 658.081 202.471 658.043 202.592C658.006 202.714 657.944 202.826 657.861 202.924C657.779 203.021 657.678 203.1 657.565 203.158C657.451 203.215 657.327 203.249 657.2 203.258C657.073 203.266 656.946 203.25 656.825 203.208C656.705 203.166 656.594 203.101 656.5 203.016C656.405 202.931 656.329 202.828 656.275 202.712L653.613 197.421C646.389 183.102 642.396 167.984 642.396 154.854C642.29 153.701 642.495 152.541 642.989 151.493C643.483 150.446 644.249 149.55 645.206 148.898C646.273 148.379 647.458 148.155 648.641 148.248C649.823 148.341 650.959 148.749 651.931 149.429C654.42 151.011 656.498 153.162 657.993 155.704C659.488 158.247 660.357 161.108 660.53 164.052V175.617C660.623 183.672 661.874 191.673 664.244 199.372L665.575 203.843C665.611 203.963 665.623 204.089 665.61 204.213C665.597 204.337 665.559 204.458 665.5 204.568C665.44 204.677 665.36 204.774 665.263 204.853C665.166 204.932 665.054 204.99 664.935 205.026C664.847 205.051 664.756 205.064 664.665 205.064Z"
            fill="white"
          />
          <path
            d="M654.007 184.999C653.788 184.999 653.576 184.923 653.407 184.785C653.237 184.646 653.121 184.453 653.077 184.239L652.203 180.172C651.365 176.264 650.942 172.278 650.94 168.281V157.566C650.94 157.314 651.041 157.072 651.219 156.894C651.397 156.715 651.639 156.615 651.891 156.615C652.143 156.615 652.385 156.715 652.563 156.894C652.741 157.072 652.842 157.314 652.842 157.566V168.281C652.842 172.144 653.252 175.996 654.064 179.773L654.939 183.842C654.991 184.088 654.944 184.345 654.807 184.556C654.67 184.768 654.455 184.916 654.209 184.969C654.143 184.987 654.075 184.997 654.007 184.999Z"
            fill="white"
          />
          <path
            d="M624.685 164.379C624.449 164.38 624.22 164.293 624.044 164.135C623.868 163.976 623.758 163.757 623.735 163.522L623.181 157.961C623.156 157.71 623.232 157.46 623.391 157.265C623.551 157.07 623.781 156.946 624.031 156.921C624.156 156.907 624.282 156.918 624.403 156.953C624.523 156.989 624.635 157.048 624.732 157.128C624.829 157.207 624.909 157.306 624.967 157.417C625.025 157.528 625.061 157.65 625.071 157.775L625.624 163.336C625.649 163.586 625.573 163.836 625.413 164.031C625.254 164.225 625.023 164.349 624.773 164.374L624.685 164.379Z"
            fill="white"
          />
          <path
            d="M706.119 296.287L613 243.546C612.023 242.819 610.838 242.425 609.62 242.423C608.402 242.421 607.216 242.81 606.236 243.534L598.19 249.097L603.677 255.882V354.029C603.677 360.894 607.86 368.87 612.993 371.843L703.8 423.249L704.227 430.558L712.703 424.749C713.678 423.834 714.431 422.709 714.904 421.459C715.378 420.208 715.558 418.867 715.433 417.536V314.09C715.446 307.234 711.264 299.261 706.119 296.287Z"
            fill="#022859"
          />
          <path
            opacity="0.3"
            d="M706.119 296.287L613 243.546C612.023 242.819 610.838 242.425 609.62 242.423C608.402 242.421 607.216 242.81 606.236 243.534L598.19 249.097L603.677 255.882V354.029C603.677 360.894 607.86 368.87 612.993 371.843L703.8 423.249L704.227 430.558L712.703 424.749C713.678 423.834 714.431 422.709 714.904 421.459C715.378 420.208 715.558 418.867 715.433 417.536V314.09C715.446 307.234 711.264 299.261 706.119 296.287Z"
            fill="black"
          />
          <path
            d="M698.203 430.032L605.084 377.292C599.936 374.319 595.769 366.343 595.769 359.478V256.044C595.769 249.179 599.951 246.023 605.084 248.994L698.203 301.733C703.351 304.704 707.518 312.679 707.518 319.544V422.981C707.526 429.849 703.351 433.004 698.203 430.032Z"
            fill="#024873"
          />
          <path
            d="M616.49 284.903C616.238 284.903 615.996 284.803 615.818 284.624C615.639 284.446 615.539 284.204 615.539 283.952V277.54C615.537 276.907 615.703 276.284 616.02 275.736C616.337 275.188 616.794 274.734 617.343 274.42C617.903 274.089 618.541 273.913 619.192 273.908C619.842 273.904 620.482 274.072 621.047 274.395L627.767 278.197C627.978 278.326 628.131 278.531 628.193 278.77C628.255 279.009 628.222 279.262 628.1 279.477C627.979 279.692 627.779 279.851 627.542 279.921C627.305 279.991 627.051 279.966 626.832 279.851L620.111 276.049C619.835 275.891 619.523 275.809 619.205 275.811C618.887 275.813 618.575 275.899 618.301 276.06C618.039 276.207 617.82 276.421 617.668 276.681C617.517 276.941 617.438 277.237 617.44 277.538V283.95C617.44 284.075 617.416 284.199 617.368 284.315C617.321 284.43 617.251 284.535 617.162 284.624C617.074 284.712 616.969 284.782 616.854 284.83C616.738 284.878 616.615 284.903 616.49 284.903Z"
            fill="white"
          />
          <path
            d="M627.3 373.075C627.136 373.075 626.975 373.032 626.832 372.951L620.558 369.392C619.044 368.54 617.782 367.302 616.901 365.804C616.021 364.306 615.553 362.601 615.545 360.864V354.953C615.545 354.701 615.645 354.459 615.823 354.281C616.002 354.103 616.243 354.002 616.495 354.002C616.748 354.002 616.989 354.103 617.168 354.281C617.346 354.459 617.446 354.701 617.446 354.953V360.86C617.454 362.261 617.832 363.635 618.543 364.843C619.254 366.05 620.272 367.048 621.494 367.734L627.767 371.293C627.95 371.397 628.093 371.558 628.175 371.751C628.256 371.945 628.271 372.159 628.218 372.362C628.165 372.565 628.046 372.745 627.88 372.873C627.713 373.001 627.51 373.071 627.3 373.071V373.075Z"
            fill="white"
          />
          <path
            d="M684.078 404.835C683.436 404.834 682.805 404.665 682.247 404.347L675.527 400.544C675.316 400.416 675.163 400.211 675.101 399.972C675.039 399.733 675.072 399.479 675.193 399.264C675.315 399.05 675.515 398.89 675.752 398.821C675.989 398.751 676.243 398.776 676.462 398.89L683.183 402.693C683.458 402.851 683.771 402.933 684.089 402.931C684.407 402.929 684.719 402.843 684.992 402.681C685.255 402.535 685.474 402.321 685.626 402.061C685.777 401.801 685.856 401.505 685.854 401.204V394.791C685.854 394.539 685.954 394.298 686.132 394.119C686.31 393.941 686.552 393.841 686.804 393.841C687.056 393.841 687.298 393.941 687.476 394.119C687.655 394.298 687.755 394.539 687.755 394.791V401.204C687.757 401.837 687.59 402.46 687.273 403.008C686.956 403.556 686.499 404.01 685.949 404.324C685.382 404.657 684.736 404.834 684.078 404.835Z"
            fill="white"
          />
          <path
            d="M686.798 324.735C686.546 324.735 686.304 324.635 686.126 324.457C685.948 324.278 685.847 324.037 685.847 323.784V317.876C685.84 316.474 685.461 315.1 684.75 313.893C684.039 312.685 683.021 311.688 681.8 311.001L675.526 307.442C675.413 307.383 675.313 307.302 675.233 307.203C675.152 307.105 675.091 306.991 675.055 306.869C675.019 306.747 675.008 306.619 675.023 306.492C675.037 306.365 675.077 306.243 675.14 306.132C675.202 306.021 675.287 305.924 675.388 305.846C675.489 305.769 675.604 305.712 675.728 305.68C675.851 305.648 675.98 305.641 676.106 305.66C676.232 305.678 676.353 305.722 676.461 305.788L682.735 309.347C684.25 310.199 685.512 311.437 686.392 312.935C687.273 314.433 687.741 316.138 687.749 317.876V323.784C687.749 324.037 687.648 324.278 687.47 324.457C687.292 324.635 687.05 324.735 686.798 324.735Z"
            fill="white"
          />
          <path
            d="M624.921 316.888C625.131 327.683 626.671 338.41 629.506 348.828C636.746 376.073 665.237 392.834 673.066 374.373C676.748 365.292 678.554 355.559 678.374 345.761C678.374 329.031 666.397 308.688 651.642 300.323C636.59 291.8 624.702 299.713 624.921 316.888Z"
            fill="white"
          />
          <path
            d="M650.691 332.111V350.02L642.909 344.195L650.691 332.111Z"
            fill="#E0E0E0"
          />
          <path
            d="M636.217 321.415C636.268 322.293 636.527 323.146 636.973 323.904C637.418 324.662 638.038 325.303 638.78 325.775C640.196 326.577 641.344 325.927 641.344 324.322C641.293 323.444 641.034 322.591 640.588 321.833C640.142 321.075 639.522 320.434 638.78 319.963C637.365 319.161 636.217 319.811 636.217 321.415Z"
            fill="#E0E0E0"
          />
          <path
            d="M660.036 335.054C660.087 335.932 660.346 336.785 660.791 337.543C661.237 338.301 661.857 338.942 662.599 339.413C664.015 340.216 665.164 339.565 665.164 337.961C665.112 337.083 664.853 336.23 664.407 335.472C663.961 334.714 663.341 334.073 662.599 333.601C661.183 332.799 660.036 333.449 660.036 335.054Z"
            fill="#E0E0E0"
          />
          <path
            d="M648.127 358.79L656.817 357.317C656.817 357.317 654.965 366.602 648.127 358.79Z"
            fill="#E0E0E0"
          />
          <path
            d="M507.989 375.495C507.989 375.495 521.847 374.561 529.708 393.822C534.594 405.799 540.544 424.297 544.347 436.586C545.503 440.319 545.532 444.31 544.43 448.058C543.327 451.807 541.142 455.147 538.149 457.659L513.985 477.935L505.339 462.212C510.351 455.51 515.87 449.203 521.847 443.345L505.339 393.822L507.989 375.495Z"
            fill="#FFA8A7"
          />
          <path
            d="M514.379 434.313C514.379 434.313 536.389 437.223 541.893 420.244C541.893 420.244 532.459 395.404 528.136 387.149C523.813 378.894 514.963 372.89 507.984 375.504C501.004 378.118 514.379 434.313 514.379 434.313Z"
            fill="#022859"
          />
          <path
            opacity="0.4"
            d="M514.379 434.313C514.379 434.313 536.389 437.223 541.893 420.244C541.893 420.244 532.459 395.404 528.136 387.149C523.813 378.894 514.963 372.89 507.984 375.504C501.004 378.118 514.379 434.313 514.379 434.313Z"
            fill="white"
          />
          <path
            d="M499.691 657.246C499.691 657.246 489.225 648.284 485.164 647.864C481.103 647.444 474.061 654.407 480.008 666.495C481.662 669.856 488.385 673.497 492.586 679.938C496.788 686.379 500.571 691.221 507.008 690.341C513.446 689.461 514.29 685.82 513.87 681.619C513.323 677.775 512.552 673.966 511.56 670.212L499.691 657.246Z"
            fill="#37474F"
          />
          <path
            d="M507.353 688.403C500.714 689.312 496.816 684.321 492.486 677.681C488.155 671.04 481.227 667.289 479.522 663.825C478.83 662.438 478.27 660.989 477.849 659.498C478.162 661.934 478.892 664.299 480.008 666.487C481.664 669.848 488.385 673.489 492.586 679.93C496.788 686.371 500.571 691.213 507.009 690.333C511.952 689.658 513.579 687.36 513.891 684.439C513.039 686.405 511.168 687.882 507.353 688.403Z"
            fill="#263238"
          />
          <path
            d="M494.109 668.761C493.934 668.76 493.762 668.714 493.61 668.627C493.458 668.54 493.331 668.416 493.241 668.266C493.151 668.116 493.101 667.945 493.096 667.77C493.091 667.595 493.132 667.421 493.213 667.267C495.342 663.493 498.881 660.719 503.054 659.554C503.316 659.494 503.592 659.541 503.82 659.684C504.048 659.828 504.21 660.056 504.27 660.319C504.329 660.582 504.282 660.857 504.139 661.085C503.995 661.313 503.767 661.475 503.504 661.535C499.916 662.588 496.872 664.984 495.006 668.225C494.919 668.387 494.79 668.523 494.632 668.617C494.474 668.711 494.293 668.761 494.109 668.761Z"
            fill="#EBEBEB"
          />
          <path
            d="M490.202 665.16C490.035 665.159 489.871 665.118 489.724 665.038C489.607 664.975 489.503 664.89 489.418 664.787C489.333 664.685 489.269 664.566 489.231 664.438C489.192 664.311 489.178 664.177 489.191 664.044C489.204 663.912 489.243 663.783 489.306 663.665C491.435 659.892 494.974 657.118 499.147 655.952C499.277 655.923 499.411 655.919 499.543 655.942C499.674 655.964 499.8 656.013 499.913 656.084C500.026 656.155 500.123 656.248 500.2 656.357C500.277 656.465 500.332 656.588 500.361 656.718C500.391 656.849 500.394 656.983 500.372 657.115C500.349 657.246 500.301 657.372 500.23 657.485C500.159 657.597 500.066 657.695 499.957 657.772C499.848 657.849 499.725 657.904 499.595 657.933C496.007 658.986 492.963 661.382 491.097 664.624C491.01 664.786 490.881 664.921 490.724 665.015C490.566 665.11 490.385 665.16 490.202 665.16Z"
            fill="#EBEBEB"
          />
          <path
            d="M485.736 661.559C485.561 661.558 485.389 661.512 485.237 661.425C485.085 661.338 484.958 661.214 484.868 661.063C484.778 660.913 484.728 660.742 484.723 660.567C484.718 660.392 484.759 660.219 484.84 660.064C485.894 658.196 487.304 656.553 488.993 655.23C490.681 653.907 492.613 652.929 494.679 652.353C494.809 652.324 494.943 652.32 495.075 652.343C495.206 652.365 495.332 652.414 495.445 652.485C495.558 652.556 495.655 652.649 495.732 652.757C495.809 652.866 495.864 652.989 495.894 653.119C495.923 653.249 495.927 653.384 495.904 653.515C495.881 653.647 495.833 653.773 495.762 653.885C495.691 653.998 495.598 654.096 495.489 654.173C495.381 654.25 495.258 654.305 495.127 654.334C491.54 655.386 488.497 657.782 486.633 661.022C486.546 661.185 486.416 661.32 486.258 661.414C486.1 661.509 485.92 661.559 485.736 661.559Z"
            fill="#EBEBEB"
          />
          <path
            d="M444.023 686.62C444.023 686.62 430.006 682.073 425.821 683.326C421.637 684.579 417.547 694.352 428.388 703.837C431.403 706.476 439.536 707.309 446.333 711.942C453.13 716.575 458.852 719.803 464.852 716.286C470.852 712.769 470.365 708.723 469.293 704.335C467.932 698.746 466.841 694.685 466.841 694.685L444.023 686.62Z"
            fill="#37474F"
          />
          <path
            d="M464.398 714.24C458.215 717.863 452.314 714.538 445.31 709.762C438.306 704.987 429.911 704.127 426.812 701.407C425.563 700.321 424.417 699.121 423.39 697.823C424.701 700.1 426.395 702.134 428.397 703.837C431.413 706.475 439.546 707.308 446.342 711.941C453.139 716.574 458.861 719.802 464.861 716.285C469.457 713.591 470.128 710.648 469.234 707.631C469.192 709.926 467.951 712.156 464.398 714.24Z"
            fill="#263238"
          />
          <path
            d="M440.679 699.563C440.646 699.565 440.612 699.565 440.578 699.563C440.446 699.55 440.317 699.512 440.199 699.449C440.082 699.387 439.977 699.302 439.893 699.199C439.808 699.096 439.744 698.978 439.705 698.85C439.666 698.723 439.653 698.589 439.666 698.456C439.936 696.188 440.651 693.996 441.769 692.004C442.887 690.012 444.386 688.26 446.181 686.848C446.401 686.692 446.673 686.629 446.939 686.674C447.205 686.719 447.441 686.868 447.597 687.088C447.754 687.307 447.816 687.58 447.771 687.845C447.726 688.111 447.577 688.348 447.358 688.504C444.23 691.029 442.199 694.665 441.689 698.652C441.663 698.902 441.545 699.133 441.359 699.302C441.172 699.47 440.93 699.563 440.679 699.563Z"
            fill="#EBEBEB"
          />
          <path
            d="M446.468 701.456C446.434 701.458 446.401 701.458 446.367 701.456C446.099 701.431 445.852 701.3 445.681 701.092C445.509 700.885 445.427 700.618 445.453 700.35C446.001 695.769 448.345 691.594 451.97 688.74C452.079 688.662 452.202 688.607 452.332 688.577C452.462 688.548 452.596 688.544 452.728 688.566C452.859 688.588 452.985 688.636 453.098 688.707C453.211 688.778 453.309 688.87 453.386 688.979C453.464 689.088 453.519 689.211 453.548 689.341C453.578 689.471 453.582 689.605 453.56 689.737C453.538 689.868 453.49 689.994 453.419 690.107C453.348 690.22 453.255 690.318 453.147 690.395C450.021 692.922 447.99 696.557 447.478 700.544C447.452 700.794 447.334 701.025 447.148 701.194C446.961 701.362 446.719 701.456 446.468 701.456Z"
            fill="#EBEBEB"
          />
          <path
            d="M435.338 697.613H435.237C434.97 697.587 434.723 697.456 434.552 697.249C434.381 697.041 434.299 696.774 434.325 696.507C434.872 691.926 437.216 687.751 440.842 684.898C441.062 684.742 441.334 684.68 441.6 684.725C441.865 684.77 442.102 684.918 442.258 685.138C442.414 685.357 442.477 685.63 442.432 685.896C442.387 686.161 442.238 686.398 442.019 686.554C438.891 689.079 436.859 692.715 436.348 696.703C436.322 696.952 436.204 697.184 436.018 697.352C435.831 697.52 435.589 697.613 435.338 697.613Z"
            fill="#EBEBEB"
          />
          <path
            d="M512.213 659.91C513.468 646.031 516.189 624.278 517.32 614.109C518.856 601.254 518.486 588.242 516.223 575.495C515.637 572.49 515.49 569.416 515.786 566.369C518.533 538.722 520.337 493.916 518.814 484.07L480.006 492.281C480.006 492.281 484.759 555.145 486.85 576.055C488.941 597.105 496.749 660.086 496.749 660.086C499.062 661.571 501.76 662.345 504.508 662.313C507.256 662.282 509.935 661.446 512.213 659.91Z"
            fill="#455A64"
          />
          <path
            d="M506.623 674.189C507.693 673.937 508.694 673.448 509.549 672.757C510.405 672.065 511.094 671.191 511.566 670.197C511.566 668.009 511.82 664.357 512.222 659.916C509.943 661.456 507.263 662.295 504.513 662.329C501.763 662.363 499.063 661.59 496.748 660.106L498.123 671.783C499.263 672.804 500.621 673.553 502.094 673.97C503.567 674.387 505.116 674.462 506.623 674.189Z"
            fill="#FFA8A7"
          />
          <path
            d="M468.557 684.309C470.139 663.302 473.198 622.583 473.604 616.189C473.904 609.119 473.458 602.036 472.274 595.06C471.619 591.287 471.64 587.429 472.336 583.664L489.392 489.036L442.496 488.35L439.427 587.485C439.388 588.767 439.437 590.049 439.574 591.324L449.521 683.72C449.521 683.72 459.213 691.857 468.557 684.309Z"
            fill="#455A64"
          />
          <path
            d="M460.737 701.66C462.194 701.488 463.584 700.956 464.784 700.113C465.984 699.269 466.956 698.141 467.612 696.83L468.562 684.311C459.218 691.858 449.519 683.721 449.519 683.721L451.009 697.577C451.009 697.577 453.209 702.366 460.737 701.66Z"
            fill="#FFA8A7"
          />
          <path
            d="M464.158 381.806L453.098 385.585L441.194 441.878L441.765 491.795C441.765 491.795 450.265 498.567 483.465 498.567C502.096 498.567 514.233 491.55 518.811 484.078L515.826 453.92C515.826 453.92 518.811 424.205 518.811 409.517C518.811 394.829 519.465 382.785 507.974 375.503L497.752 376.344L464.158 381.806Z"
            fill="#022859"
          />
          <path
            opacity="0.2"
            d="M464.158 381.806L453.098 385.585L441.194 441.878L441.765 491.795C441.765 491.795 450.265 498.567 483.465 498.567C502.096 498.567 514.233 491.55 518.811 484.078L515.826 453.92C515.826 453.92 518.811 424.205 518.811 409.517C518.811 394.829 519.465 382.785 507.974 375.503L497.752 376.344L464.158 381.806Z"
            fill="white"
          />
          <path
            d="M452.137 333.428L446.597 344.39C446.517 344.549 446.472 344.724 446.465 344.903C446.458 345.081 446.49 345.259 446.558 345.424C446.626 345.59 446.728 345.738 446.859 345.86C446.989 345.982 447.145 346.075 447.314 346.131L453.888 348.32L452.137 333.428Z"
            fill="#F28F8F"
          />
          <path
            d="M459.817 315.037C459.817 315.037 451.416 319.563 451.416 345.537C451.416 359.818 452.395 368.921 459.817 368.362C467.239 367.803 488.593 365.001 488.593 365.001V315.037H459.817Z"
            fill="#FFA8A7"
          />
          <path
            d="M459.818 368.363C462.426 368.173 466.759 367.69 471.276 367.16V364.511C467.2 366.262 462.941 367.552 458.578 368.355C458.99 368.39 459.405 368.393 459.818 368.363Z"
            fill="#F28F8F"
          />
          <path
            d="M470.008 363.401V379.704H492.308V356.797L470.008 363.401Z"
            fill="#FFA8A7"
          />
          <path
            d="M470.008 373.496C470.008 373.496 478.025 376.347 484.468 375.224C490.911 374.1 492.309 370.182 492.309 370.182C492.309 370.182 494.409 370.022 497.771 376.344C496.463 378.711 494.589 380.717 492.317 382.184C490.044 383.65 487.444 384.53 484.748 384.745C477.756 385.204 470.746 384.203 464.162 381.806C464.162 381.806 467.257 372.686 470.008 373.496Z"
            fill="#022859"
          />
          <path
            opacity="0.4"
            d="M470.008 373.496C470.008 373.496 478.025 376.347 484.468 375.224C490.911 374.1 492.309 370.182 492.309 370.182C492.309 370.182 494.409 370.022 497.771 376.344C496.463 378.711 494.589 380.717 492.317 382.184C490.044 383.65 487.444 384.53 484.748 384.745C477.756 385.204 470.746 384.203 464.162 381.806C464.162 381.806 467.257 372.686 470.008 373.496Z"
            fill="white"
          />
          <path
            d="M420.258 421.857L414.268 431.072C414.268 431.072 399.726 424.585 389.507 420.656C383.589 418.446 378.078 415.274 373.195 411.266C373.58 407.297 374.236 403.358 375.159 399.479C376.34 395.486 376.731 392.155 373.195 393.923C369.659 395.692 367.302 402.572 367.102 403.357C367.102 403.357 346.663 382.825 344.098 383.262C341.533 383.699 342.136 386.798 347.636 393.148L353.138 399.488C353.138 399.488 340.59 406.713 342.645 414.568C344.701 422.424 361.197 425.975 361.197 425.975C361.197 425.975 409.532 463.118 420.249 456.437C430.965 449.757 446.104 430.494 446.104 430.494L420.258 421.857Z"
            fill="#FFA8A7"
          />
          <path
            d="M457.483 384.15C457.483 384.15 466.407 391.486 460.591 406.656C454.775 421.825 439.935 440.148 439.935 440.148C439.935 440.148 424.372 435.312 418.37 422.741L437.988 392.036C439.382 389.849 441.271 388.021 443.502 386.7C445.734 385.379 448.245 384.602 450.832 384.431C452.682 384.323 454.884 384.218 457.483 384.15Z"
            fill="#022859"
          />
          <path
            opacity="0.4"
            d="M457.483 384.15C457.483 384.15 466.407 391.486 460.591 406.656C454.775 421.825 439.935 440.148 439.935 440.148C439.935 440.148 424.372 435.312 418.37 422.741L437.988 392.036C439.382 389.849 441.271 388.021 443.502 386.7C445.734 385.379 448.245 384.602 450.832 384.431C452.682 384.323 454.884 384.218 457.483 384.15Z"
            fill="white"
          />
          <path
            d="M456.597 299.745C456.597 299.745 447.783 298.574 445.534 304.646C444.135 308.428 448.616 311.369 448.616 311.369C448.616 311.369 442.93 316.721 451.417 318.369C451.272 319.28 451.355 320.213 451.659 321.084C451.962 321.955 452.476 322.738 453.156 323.362C453.835 323.986 454.658 324.432 455.552 324.66C456.446 324.889 457.382 324.893 458.278 324.671C458.278 324.671 457.297 330.445 464.719 332.466C464.719 332.466 460.968 342.46 468.025 342.601H474.632L471.97 350.303C471.97 350.303 476.913 362.206 492.312 362.206C494.018 358.595 495.935 355.087 498.054 351.702C499.875 349.322 509.396 337.139 509.396 327.477C509.396 317.816 505.679 312.091 500.537 310.823C498.901 307.278 496.352 304.23 493.153 301.992C487.972 298.49 477.05 295.369 470.888 299.66C470.888 299.66 465.426 292.498 461.647 292.498C457.867 292.498 456.597 296.384 456.597 299.745Z"
            fill="#263238"
          />
          <path
            d="M468.026 342.605C468.026 342.605 467.379 332.47 475.923 332.47C484.467 332.47 482.437 350.307 471.969 350.307L468.026 342.605Z"
            fill="#FFA8A7"
          />
        </svg>