<svg width="35" height="35" viewBox="0 0 47 47" fill="none" xmlns="http://www.w3.org/2000/svg">
<g style="">
<rect x="0.488281" y="0.917236" width="46.0626" height="46.0626" fill=""/>
</g>
<path d="M32.3713 7.45752H37.2713C37.7964 7.45752 38.3 7.66815 38.6712 8.04309C39.0425 8.41802 39.2511 8.92654 39.2511 9.45678V42.4445C39.2511 42.9748 39.0425 43.4833 38.6712 43.8582C38.3 44.2332 37.7964 44.4438 37.2713 44.4438H9.55402C9.02895 44.4438 8.52538 44.2332 8.15409 43.8582C7.78281 43.4833 7.57422 42.9748 7.57422 42.4445V9.45678C7.57422 8.92654 7.78281 8.41802 8.15409 8.04309C8.52538 7.66815 9.02895 7.45752 9.55402 7.45752H16.4833V10.4564H30.342V7.45752H32.3713Z" stroke="#A0E3F2" strokeWidth="2.65746" strokeLinejoin="round"/>
<path d="M26.3834 19.4542L18.4642 27.4522H28.3672L20.444 35.4492M16.4844 4.45972H30.343V10.4575H16.4844V4.45972Z" stroke="#A0E3F2" strokeWidth="2.65746" strokeLinecap="round" strokeLinejoin="round"/>
</svg>
