 <svg
                width="100"
                height="70"
                viewBox="0 0 128 70"
                fill="none"
                xmlns="http://www.w3.org/2000/svg"
              >
                <path
                  d="M81.0494 57.8987H42.0485C39.8576 65.0249 35.1884 69.2703 27.5247 68.9018C20.6863 68.5734 16.5347 64.4436 14.5872 57.843C12.6926 57.843 10.7533 57.8469 8.81426 57.843C3.4376 57.8292 0.0119839 54.4247 0.0048879 49.0526C-0.00481001 42.2397 -7.62868e-05 35.4267 0.019083 28.6135C0.0357587 23.1921 3.4007 19.6163 8.80114 19.9071C12.2136 20.0908 14.5638 19.0372 16.8197 16.5433C20.4358 12.5437 24.3837 8.84124 28.2279 5.05048C29.8171 3.43832 31.7148 2.16256 33.8079 1.29931C35.901 0.436061 38.1466 0.00298983 40.4108 0.0259261C51.0785 -0.00622803 61.7472 -0.00847309 72.4171 0.0191889C74.7473 -0.00916214 77.059 0.436874 79.2113 1.33014C81.3635 2.2234 83.3114 3.54519 84.9362 5.21503C89.6122 9.86437 94.2544 14.5478 98.953 19.1737C99.4868 19.676 100.15 20.019 100.869 20.1642C107.207 21.3806 113.566 22.491 119.902 23.7167C122.152 24.1146 124.189 25.2919 125.657 27.042C127.124 28.7921 127.928 31.0031 127.927 33.2866C128.022 38.1511 128.022 43.0172 127.927 47.8847C127.808 53.5717 123.475 57.76 117.78 57.8363C114.991 57.8718 112.202 57.8636 109.413 57.8303C108.703 57.8218 108.332 57.9672 108.097 58.7332C106.131 65.1472 100.784 69.1359 94.4208 69.0029C88.1004 68.8706 82.9355 64.6408 81.1647 58.1509C81.1505 58.1097 81.1267 58.0711 81.0494 57.8987ZM5.50255 38.0289C5.50255 42.1278 5.46529 46.0182 5.52206 49.9072C5.54335 51.3481 6.62549 52.2975 8.15043 52.3454C9.83077 52.3979 11.5175 52.3007 13.1953 52.3897C14.2906 52.4475 14.743 52.1106 15.101 51.0066C16.8001 45.7679 20.4361 42.4701 25.8366 41.4898C31.3527 40.4887 36.0077 42.341 39.3936 46.8272C40.5899 48.4124 41.2932 50.3697 42.3093 52.327C42.4765 52.3498 42.6451 52.3617 42.8138 52.3624C55.2082 52.3652 67.6036 52.3738 79.9999 52.388C80.9128 52.3901 81.1576 52.0209 81.3942 51.2375C83.3705 44.6894 89.6384 40.4798 96.2008 41.343C102.298 42.1456 106.218 45.5905 108.122 51.4116C108.247 51.7939 108.756 52.316 109.095 52.3223C112.192 52.3823 115.293 52.4071 118.389 52.3082C120.379 52.2447 122.227 50.6059 122.363 48.6529C122.532 46.2019 122.404 43.7305 122.404 41.138H121.031C119.304 41.138 117.578 41.1582 115.851 41.1313C114.084 41.1036 112.87 39.9862 112.859 38.4311C112.847 36.8518 113.999 35.7712 115.81 35.6961C116.561 35.6649 117.315 35.6879 118.068 35.6879C119.506 35.6879 120.945 35.6879 122.344 35.6879C122.972 31.2262 121.221 29.3125 117.554 28.7724C112.877 28.0862 108.22 27.212 103.597 26.219C99.7141 25.3856 95.8205 25.1976 91.8715 25.2061C72.2155 25.2473 52.5595 25.2531 32.9035 25.2235C30.1176 25.2235 28.9617 23.5645 29.9452 20.9614C31.4123 17.0778 32.9039 13.2037 34.3802 9.32319C34.6864 8.5178 34.9702 7.7039 35.2644 6.89354L34.9759 6.64033C33.9849 7.40849 32.9035 8.08514 32.0172 8.95969C26.979 13.9339 21.9687 18.9372 16.9861 23.9695C16.6021 24.3951 16.1283 24.7301 15.5989 24.9502C15.0695 25.1702 14.4978 25.2699 13.9252 25.242C12.0681 25.1774 10.2069 25.2005 8.34805 25.237C6.89337 25.2657 5.6693 26.1403 5.57208 27.4099C5.44223 29.1068 5.54015 30.8212 5.54015 32.4812C5.66028 32.5365 5.78619 32.5783 5.91554 32.6057C7.59765 32.6171 9.27941 32.6157 10.9615 32.6309C12.9033 32.6483 14.0838 33.6395 14.1193 35.2673C14.1569 36.9558 12.9626 38.0073 10.9587 38.0222C9.19851 38.0392 7.43657 38.0289 5.50255 38.0289ZM36.2493 19.7092H61.6038V5.48243H60.0991C55.6286 5.48243 51.1581 5.47463 46.6876 5.48633C45.0555 5.49059 43.004 4.9526 41.9013 5.7321C40.7471 6.54777 40.4707 8.63732 39.8676 10.1921C38.6598 13.3079 37.49 16.4387 36.2493 19.7092ZM67.2433 5.48456V19.6922H91.741C88.0379 15.9958 84.574 12.4618 81.01 9.02991C79.9708 8.07896 78.8088 7.27157 77.5549 6.62934C74.2982 4.8689 70.7502 5.63386 67.2433 5.48456ZM28.3408 63.5325C30.58 63.5283 32.7264 62.6374 34.31 61.0549C35.8936 59.4724 36.7853 57.3272 36.79 55.0889C36.7767 52.8508 35.8751 50.7095 34.2832 49.1354C32.6913 47.5614 30.5395 46.6833 28.3003 46.6942C27.192 46.6923 26.0943 46.9093 25.0702 47.3327C24.0461 47.7561 23.1157 48.3776 22.3325 49.1614C21.5494 49.9452 20.9289 50.876 20.5066 51.9002C20.0844 52.9244 19.8687 54.0219 19.872 55.1297C19.8752 56.2375 20.0968 57.3338 20.5243 58.3559C20.9518 59.378 21.5767 60.3059 22.3633 61.0863C23.1498 61.8668 24.0827 62.4845 25.1084 62.9043C26.134 63.3241 27.2325 63.5375 28.3408 63.5325ZM94.7806 46.6942C93.6721 46.6804 92.5719 46.8862 91.5435 47.2996C90.515 47.713 89.5786 48.3258 88.7883 49.1028C87.998 49.8798 87.3695 50.8055 86.939 51.8265C86.5084 52.8475 86.2844 53.9437 86.2799 55.0517C86.2709 56.1596 86.481 57.2585 86.8981 58.2851C87.3151 59.3117 87.9309 60.2458 88.7101 61.0339C89.4893 61.822 90.4165 62.4486 91.4386 62.8775C92.4607 63.3065 93.5574 63.5294 94.666 63.5336C96.9055 63.5496 99.06 62.6777 100.658 61.109C102.255 59.5402 103.166 57.4025 103.19 55.1641C103.194 54.0558 102.98 52.9575 102.56 51.9319C102.14 50.9064 101.522 49.9736 100.741 49.187C99.9596 48.4004 99.0311 47.7754 98.0083 47.3476C96.9854 46.9199 95.8883 46.6979 94.7795 46.6942H94.7806Z"
                  fill="#022859"
                />
              </svg>