<svg width="24" height="27" viewBox="0 0 24 27" fill="none" xmlns="http://www.w3.org/2000/svg">
<path d="M23.4495 26.4287C23.3382 26.326 23.2372 26.2128 23.1477 26.0906C21.7106 23.6829 20.2769 21.2733 18.8467 18.8618C18.6812 18.5813 18.6978 18.3954 18.9019 18.2511C18.94 18.2188 18.9845 18.1949 19.0324 18.181C19.0804 18.1671 19.1308 18.1635 19.1802 18.1704C19.2297 18.1773 19.2772 18.1946 19.3195 18.2211C19.3618 18.2476 19.3981 18.2827 19.4259 18.3242C19.4769 18.3932 19.523 18.4656 19.5638 18.541C20.9751 20.913 22.3861 23.286 23.797 25.6601C24.0339 26.0583 24.0177 26.1441 23.6566 26.4285L23.4495 26.4287Z" fill="#024873"/>
<path d="M0.38103 26.4333C-0.0348966 26.2228 -0.0743385 26.0943 0.163689 25.6935C1.59792 23.2802 3.03141 20.8669 4.46417 18.4537C4.56457 18.2846 4.69282 18.1335 4.88975 18.2011C5.03432 18.2581 5.15089 18.3693 5.21466 18.5111C5.22925 18.6446 5.19312 18.7786 5.11344 18.8867C4.06682 20.6586 3.01625 22.428 1.96172 24.195C1.58772 24.8242 1.22033 25.4572 0.835296 26.0797C0.732413 26.2106 0.614783 26.3293 0.484736 26.4333H0.38103Z" fill="#024873"/>
<path d="M20.4578 4.65918C21.1501 3.73244 22.1036 3.709 23.078 3.84442C23.2999 3.87733 23.5051 3.98103 23.6632 4.14008C23.8213 4.29913 23.9238 4.505 23.9554 4.72703C24.0171 5.06462 24.0148 5.41081 23.9485 5.74754C23.8916 5.97151 23.7613 6.16998 23.5785 6.31126C23.3956 6.45254 23.1707 6.52849 22.9396 6.52699C22.7586 6.53361 22.5774 6.52947 22.3965 6.52975H21.8465C21.8857 6.60891 21.9097 6.66765 21.9419 6.72282C22.2906 7.29164 22.4751 7.9458 22.4751 8.61296C22.4751 9.44895 22.4781 10.2852 22.4737 11.1212C22.4682 12.0075 22.1718 12.8674 21.63 13.5688C21.5448 13.6917 21.4969 13.8366 21.4921 13.9861C21.4761 14.5101 21.4893 15.0375 21.4847 15.5632C21.4909 15.7643 21.4558 15.9646 21.3816 16.1516C21.3074 16.3387 21.1956 16.5085 21.0532 16.6507C20.9108 16.7928 20.7407 16.9043 20.5535 16.9782C20.3664 17.052 20.166 17.0867 19.9649 17.0802C19.4649 17.0851 18.9648 17.0868 18.465 17.0802C18.2683 17.0831 18.0731 17.0463 17.8909 16.972C17.7087 16.8978 17.5433 16.7876 17.4047 16.648C17.2661 16.5084 17.157 16.3423 17.084 16.1596C17.011 15.9769 16.9755 15.7814 16.9798 15.5847C16.9762 15.3533 16.9798 15.1216 16.9798 14.8709H7.04691C7.04691 15.1045 7.0505 15.3348 7.04691 15.5646C7.05183 15.7658 7.01571 15.9658 6.94075 16.1526C6.86578 16.3394 6.75355 16.5089 6.6109 16.6509C6.46825 16.7928 6.29817 16.9042 6.11104 16.9783C5.92391 17.0523 5.72365 17.0874 5.52249 17.0815C5.03118 17.0865 4.53977 17.0865 4.04827 17.0815C3.84925 17.0883 3.65096 17.0542 3.46559 16.9815C3.28022 16.9087 3.11169 16.7989 2.97035 16.6586C2.82902 16.5183 2.71787 16.3506 2.64374 16.1658C2.56961 15.981 2.53406 15.7829 2.53929 15.5839C2.52881 15.0411 2.54453 14.4977 2.53074 13.9549C2.52642 13.8212 2.4833 13.6917 2.40663 13.582C1.82922 12.8307 1.5224 11.9065 1.53588 10.959C1.54554 10.0715 1.53588 9.18363 1.56153 8.29661C1.58112 7.71563 1.7685 7.15274 2.10103 6.67593C2.12364 6.64255 2.13909 6.60449 2.17715 6.53223C1.8299 6.53223 1.5152 6.53416 1.20022 6.53223C0.460762 6.52699 0.0500752 6.07769 0.00511758 5.33575C-0.0665939 4.14589 0.62487 3.79698 1.48127 3.83367C2.45434 3.87532 2.70147 3.94399 3.4903 4.67821C3.53609 4.59271 3.58242 4.51272 3.62214 4.43136C4.13239 3.36837 4.63327 2.30097 5.15428 1.24323C5.31462 0.871033 5.58213 0.554996 5.92272 0.335382C6.26332 0.115768 6.66158 0.00252114 7.06677 0.0100672C10.3341 -0.00335573 13.6013 -0.00335573 16.8686 0.0100672C17.2781 0.00325763 17.6801 0.119206 18.0231 0.342974C18.366 0.566743 18.6341 0.888074 18.7927 1.26557C19.3187 2.34124 19.8389 3.41692 20.3621 4.49259C20.3833 4.53368 20.4106 4.57616 20.4578 4.65918ZM11.9418 6.61745C9.07093 6.61745 6.20017 6.6158 3.3295 6.61249C3.24097 6.60624 3.15235 6.62333 3.07249 6.66205C2.99263 6.70077 2.92433 6.75976 2.87441 6.83314C2.50691 7.29586 2.30226 7.86686 2.29216 8.45768C2.2861 9.3367 2.28858 10.216 2.29382 11.0953C2.29733 11.2588 2.31412 11.4218 2.34402 11.5827C2.44599 12.2601 2.79033 12.8775 3.3131 13.3203C3.83587 13.7631 4.50155 14.0011 5.18655 13.9902C9.75513 13.9444 14.3248 13.9706 18.8945 13.9778C19.3451 13.9917 19.7911 13.8837 20.1854 13.6652C20.5798 13.4468 20.9079 13.126 21.1352 12.7367C21.5019 12.1795 21.6724 11.5161 21.6198 10.8512C21.5646 10.1051 21.6033 9.35215 21.6082 8.60221C21.618 7.96801 21.4145 7.3489 21.0304 6.84417C20.9787 6.7671 20.9074 6.70514 20.8239 6.66463C20.7405 6.62412 20.6477 6.6065 20.5552 6.61359C17.6838 6.62021 14.8126 6.62205 11.9418 6.61911V6.61745ZM20.1552 5.8518C20.1547 5.82211 20.1502 5.79262 20.142 5.76409C19.4502 4.35965 18.7629 2.95217 18.061 1.55297C17.9516 1.31545 17.7744 1.11555 17.5518 0.97839C17.3292 0.841232 17.071 0.772932 16.8096 0.782068C13.5782 0.777839 10.3467 0.778484 7.11532 0.784C6.84585 0.777943 6.58095 0.854188 6.35594 1.00257C6.13094 1.15095 5.95652 1.36441 5.85595 1.61447C5.22379 2.93341 4.57893 4.24601 3.93877 5.56109C3.89492 5.65128 3.84693 5.73926 3.789 5.8518H20.1552ZM17.7642 14.7647C17.7642 15.0546 17.7534 15.3045 17.767 15.5533C17.7642 15.6982 17.8157 15.839 17.9115 15.9479C18.0072 16.0567 18.1403 16.1258 18.2844 16.1416C18.8937 16.1692 19.5062 16.1675 20.1155 16.1377C20.2554 16.1243 20.3859 16.0613 20.4835 15.9602C20.5811 15.8591 20.6394 15.7264 20.6478 15.5861C20.6677 15.1768 20.6531 14.7658 20.6531 14.3008C19.7462 14.8869 18.7538 14.7399 17.7642 14.7655V14.7647ZM3.38687 14.3143C3.37736 14.3573 3.37018 14.4007 3.36536 14.4445C3.36536 14.7713 3.36039 15.0984 3.36536 15.4253C3.35175 15.5268 3.36178 15.6302 3.39468 15.7272C3.42758 15.8243 3.48245 15.9124 3.55501 15.9847C3.62757 16.0571 3.71586 16.1117 3.813 16.1443C3.91014 16.1769 4.0135 16.1866 4.11502 16.1727C4.53646 16.1791 4.95818 16.1752 5.3799 16.1727C5.92353 16.1711 6.15217 15.989 6.24926 15.4617C6.27519 15.3199 6.24651 15.1688 6.26388 15.0245C6.29146 14.8019 6.19493 14.7517 5.98807 14.7551C5.10216 14.7711 4.20797 14.8323 3.38687 14.3143ZM1.96064 5.69872C2.2017 5.69872 2.44359 5.71003 2.68355 5.6932C2.78871 5.68909 2.88843 5.64534 2.96267 5.57074C3.00018 5.52192 2.9577 5.38429 2.91523 5.30569C2.61459 4.75158 2.12199 4.5985 1.52375 4.61808C0.834214 4.64043 0.804425 4.65283 0.840005 5.33216C0.835301 5.38183 0.841735 5.43192 0.858841 5.47879C0.875947 5.52565 0.903293 5.56811 0.938886 5.60307C0.974479 5.63803 1.01742 5.66461 1.06459 5.68087C1.11175 5.69713 1.16195 5.70266 1.21153 5.69706C1.46114 5.70451 1.71103 5.69982 1.96064 5.7001V5.69872ZM20.8539 5.52578C20.9774 5.58538 21.1085 5.62779 21.2436 5.65183C21.7337 5.6659 22.2241 5.66038 22.7145 5.65652C23.0289 5.65404 23.0841 5.58757 23.0554 5.27452C22.9925 4.58885 22.9911 4.61477 22.3002 4.58168C21.6148 4.55051 21.1705 4.84949 20.8547 5.52716L20.8539 5.52578Z" fill="#024873"/>
<path d="M11.5543 18.4207V16.57C11.5543 16.4751 11.5526 16.3803 11.5543 16.2857C11.5604 15.9881 11.7267 15.7988 11.976 15.8038C12.0344 15.806 12.0918 15.8202 12.1444 15.8457C12.197 15.8712 12.2438 15.9073 12.2818 15.9517C12.3197 15.9962 12.3481 16.048 12.365 16.104C12.3819 16.1599 12.3871 16.2188 12.3801 16.2768C12.3839 16.906 12.3801 17.5351 12.3801 18.1642V18.4232C12.5456 18.2721 12.705 18.1347 12.8556 17.9896C12.9858 17.8641 13.1002 17.7215 13.2348 17.6016C13.3151 17.5272 13.4213 17.4873 13.5306 17.4903C13.64 17.4933 13.7438 17.5391 13.8198 17.6178C13.8588 17.6524 13.8904 17.6944 13.9127 17.7414C13.935 17.7885 13.9475 17.8395 13.9496 17.8916C13.9516 17.9436 13.9432 17.9955 13.9247 18.0441C13.9062 18.0928 13.878 18.1372 13.8419 18.1747C13.3129 18.7181 12.7768 19.2546 12.2336 19.7843C12.1957 19.8239 12.1497 19.8548 12.0986 19.8747C12.0476 19.8947 11.9929 19.9033 11.9382 19.9C11.8835 19.8967 11.8302 19.8816 11.7819 19.8556C11.7337 19.8296 11.6917 19.7934 11.6588 19.7496C11.144 19.2414 10.632 18.7294 10.1228 18.2136C10.0802 18.1768 10.0459 18.1313 10.022 18.0803C9.99817 18.0293 9.98537 17.9738 9.98443 17.9175C9.98349 17.8612 9.99445 17.8053 10.0166 17.7535C10.0387 17.7018 10.0715 17.6552 10.1129 17.617C10.15 17.577 10.1952 17.5453 10.2455 17.5242C10.2958 17.5031 10.35 17.493 10.4045 17.4945C10.4591 17.4961 10.5126 17.5092 10.5617 17.5332C10.6107 17.5571 10.654 17.5912 10.6888 17.6333C10.9629 17.9011 11.223 18.183 11.4887 18.4591L11.5543 18.4207Z" fill="#024873"/>
<path d="M11.5537 24.8172C11.5537 24.6362 11.5457 24.4548 11.5562 24.2746C11.5589 24.17 11.6014 24.0704 11.6752 23.9961C11.7489 23.9218 11.8482 23.8785 11.9528 23.875C12.0576 23.8749 12.1587 23.9139 12.2363 23.9844C12.3139 24.0549 12.3624 24.1518 12.3723 24.2562C12.3875 24.6517 12.3905 25.0491 12.3723 25.4444C12.3708 25.4946 12.3592 25.544 12.3385 25.5898C12.3177 25.6356 12.288 25.6767 12.2512 25.7109C12.2144 25.7452 12.1712 25.7717 12.124 25.7891C12.0769 25.8065 12.0267 25.8144 11.9765 25.8123C11.8718 25.8157 11.7698 25.7786 11.6917 25.7088C11.6135 25.6389 11.5653 25.5417 11.557 25.4372C11.5551 25.4201 11.5543 25.4029 11.5545 25.3856C11.5538 25.1962 11.5535 25.0067 11.5537 24.8172Z" fill="#024873"/>
<path d="M12.3803 21.934C12.3803 22.0978 12.385 22.2616 12.3803 22.4252C12.3849 22.4813 12.3777 22.5378 12.3594 22.5911C12.3411 22.6444 12.3119 22.6933 12.2738 22.7348C12.2356 22.7762 12.1893 22.8093 12.1377 22.832C12.0861 22.8547 12.0304 22.8664 11.974 22.8665C11.9177 22.8688 11.8615 22.8592 11.8091 22.8383C11.7568 22.8175 11.7094 22.7859 11.67 22.7455C11.6307 22.7051 11.6003 22.6569 11.5808 22.604C11.5613 22.5511 11.5532 22.4947 11.557 22.4384C11.5487 22.0938 11.5487 21.7491 11.557 21.4041C11.5545 21.3479 11.5635 21.2918 11.5835 21.2392C11.6034 21.1866 11.6339 21.1386 11.6731 21.0981C11.7122 21.0577 11.7592 21.0257 11.8111 21.004C11.863 20.9824 11.9189 20.9715 11.9751 20.9722C12.0313 20.9739 12.0866 20.9869 12.1376 21.0104C12.1887 21.0339 12.2345 21.0674 12.2724 21.1089C12.3102 21.1505 12.3393 21.1992 12.358 21.2523C12.3766 21.3053 12.3844 21.3616 12.3808 21.4176C12.385 21.5889 12.3806 21.7616 12.3803 21.934Z" fill="#024873"/>
<path d="M18.2965 10.6534C17.8312 10.6534 17.3651 10.668 16.9006 10.6495C16.3363 10.6271 16.1559 10.4046 16.197 9.83915C16.1976 9.51628 16.3113 9.20383 16.5184 8.95608C16.7254 8.70833 17.0127 8.54094 17.3303 8.48298C18.0254 8.31749 18.7235 8.16543 19.4246 8.02678C19.5696 7.98936 19.7213 7.98667 19.8676 8.01895C20.0138 8.05122 20.1503 8.11754 20.2661 8.21252C20.3819 8.30749 20.4736 8.42844 20.5339 8.56553C20.5941 8.70263 20.6211 8.852 20.6128 9.00151C20.6153 9.26877 20.6166 9.53603 20.6128 9.80302C20.6042 10.2868 20.4065 10.5579 19.9232 10.6156C19.4464 10.6727 18.9606 10.6542 18.4788 10.6682C18.4187 10.6702 18.3583 10.6682 18.2979 10.6682L18.2965 10.6534ZM16.9861 9.84853C17.6903 9.84853 18.3776 9.86066 19.0644 9.84522C19.819 9.82812 19.8146 9.81764 19.7881 9.07294C19.7815 8.88732 19.7125 8.82333 19.533 8.86277C18.8434 9.01419 18.1539 9.15762 17.4644 9.31511C17.3392 9.34342 17.2259 9.40999 17.1403 9.50557C17.0546 9.60115 17.0008 9.72101 16.9864 9.84853H16.9861Z" fill="#024873"/>
<path d="M5.69279 10.6631C5.2617 10.6631 4.8306 10.6719 4.40005 10.6586C4.21986 10.6518 4.04144 10.6205 3.86967 10.5657C3.72562 10.5285 3.5983 10.4439 3.50823 10.3255C3.41816 10.2071 3.37059 10.0619 3.3732 9.91312C3.36162 9.5689 3.35472 9.22359 3.37072 8.87965C3.37069 8.75573 3.39726 8.63325 3.44864 8.52048C3.50002 8.40771 3.57501 8.30729 3.66854 8.226C3.76207 8.14471 3.87196 8.08444 3.99079 8.04927C4.10961 8.0141 4.2346 8.00485 4.3573 8.02214C5.18148 8.1536 5.99734 8.33281 6.80074 8.55887C7.13235 8.67163 7.41058 8.90299 7.58195 9.20847C7.75333 9.51394 7.80574 9.87197 7.72913 10.2138C7.69921 10.3506 7.61985 10.4716 7.50626 10.5536C7.39267 10.6356 7.25283 10.6728 7.11351 10.6581C6.63994 10.6713 6.16554 10.6614 5.69141 10.6614L5.69279 10.6631ZM6.93533 9.86319C6.92401 9.72506 6.86973 9.59394 6.78009 9.48823C6.69046 9.38253 6.56998 9.30754 6.43556 9.27378C5.74161 9.11105 5.04408 8.96294 4.34544 8.82228C4.29221 8.81152 4.16506 8.90226 4.1623 8.95108C4.14493 9.24702 4.15348 9.54463 4.15348 9.86319H6.93533Z" fill="#024873"/>
<path d="M11.9711 11.0783C11.1363 11.0783 10.3014 11.0783 9.46644 11.0783C9.11616 11.0783 8.95619 10.95 8.95508 10.6778C8.95398 10.4056 9.13519 10.2522 9.48216 10.2519C11.1433 10.2507 12.8044 10.2507 14.4656 10.2519C14.7965 10.2519 14.9775 10.3998 14.9808 10.6629C14.9841 10.926 14.8076 11.0766 14.4758 11.078C13.6412 11.0795 12.8063 11.0796 11.9711 11.0783Z" fill="#024873"/>
<path d="M11.967 12.6958C11.1666 12.6958 10.3668 12.6958 9.56746 12.6958C9.48141 12.6958 9.39508 12.6958 9.30958 12.6886C9.21768 12.6883 9.12956 12.6521 9.06401 12.5876C8.99846 12.5232 8.96069 12.4358 8.95874 12.3439C8.93961 12.2495 8.95706 12.1515 9.00756 12.0695C9.05806 11.9876 9.13782 11.9279 9.23069 11.9026C9.3217 11.8774 9.41602 11.8665 9.51037 11.87C11.1454 11.8682 12.7804 11.8682 14.4154 11.87C14.5012 11.8674 14.5869 11.875 14.6708 11.8929C14.7624 11.9155 14.8433 11.9693 14.8994 12.0452C14.9555 12.121 14.9833 12.2141 14.9781 12.3083C14.9729 12.4024 14.9349 12.4918 14.8707 12.561C14.8066 12.6302 14.7202 12.6747 14.6267 12.687C14.5412 12.6963 14.4551 12.6994 14.3691 12.6961C13.5683 12.6963 12.7676 12.6962 11.967 12.6958Z" fill="#024873"/>
</svg>
