<svg width="48" height="48" viewBox="0 0 48 48" fill="none" xmlns="http://www.w3.org/2000/svg">
<g clip-path="url(#clip0_11_4040)">
<mask id="mask0_11_4040" style="mask-type:alpha" maskUnits="userSpaceOnUse" x="0" y="0" width="48" height="48">
<path d="M24.1425 47.7615C37.1869 47.7615 47.7615 37.1869 47.7615 24.1425C47.7615 11.098 37.1869 0.523438 24.1425 0.523438C11.098 0.523438 0.523438 11.098 0.523438 24.1425C0.523438 37.1869 11.098 47.7615 24.1425 47.7615Z" fill="white"/>
</mask>
<g mask="url(#mask0_11_4040)">
<path d="M24.1425 47.7615C37.1869 47.7615 47.7615 37.1869 47.7615 24.1425C47.7615 11.098 37.1869 0.523438 24.1425 0.523438C11.098 0.523438 0.523438 11.098 0.523438 24.1425C0.523438 37.1869 11.098 47.7615 24.1425 47.7615Z" fill="#F5F5F5"/>
</g>
<path d="M15.6334 24.1006C15.5723 24.1062 15.5414 24.0309 15.5848 23.9876C15.705 23.8674 15.8251 23.7473 15.9452 23.6271C16.1315 23.4409 16.32 23.2524 16.5062 23.0661C16.5735 22.9988 16.6409 22.9315 16.7082 22.8642C16.8002 22.7722 16.8989 22.6869 16.9819 22.5859C17.1884 22.3436 17.2287 21.989 17.0873 21.7039C16.9436 21.4166 16.6338 21.2415 16.3129 21.2617C16.0952 21.2773 15.9112 21.3805 15.7608 21.5309C15.6576 21.6341 15.5521 21.7396 15.4489 21.8428C15.3008 21.9909 15.155 22.1367 15.0069 22.2848C14.8004 22.4913 14.594 22.6977 14.3875 22.9042C14.2192 23.0724 14.0487 23.243 13.8804 23.4113C13.7435 23.5482 13.6066 23.685 13.4675 23.8242C13.3464 23.9453 13.2229 24.0687 13.1018 24.1899C13.0322 24.2595 12.9537 24.329 12.8931 24.4076C12.6934 24.6612 12.6643 25.0225 12.8237 25.3076C12.891 25.4243 12.9943 25.5186 13.0886 25.6128C13.2816 25.8059 13.4724 25.9967 13.6655 26.1897C13.8518 26.3761 14.0404 26.5646 14.2267 26.7509C14.3658 26.8901 14.5073 27.0315 14.6464 27.1707C14.8058 27.3301 14.963 27.4872 15.1223 27.6466C15.3333 27.8576 15.5444 28.0686 15.7554 28.2796C15.899 28.4233 16.0629 28.5288 16.2694 28.5558C16.5881 28.5962 16.9045 28.437 17.066 28.1587C17.2253 27.8827 17.2028 27.5281 17.012 27.2744C16.9222 27.1532 16.8032 27.0522 16.6977 26.9467C16.5316 26.7806 16.3678 26.6167 16.2016 26.4506C16.0468 26.2957 15.8896 26.1385 15.7347 25.9837C15.6357 25.8847 15.7063 25.7152 15.8463 25.7153C16.2288 25.7158 16.6113 25.7151 16.9938 25.7168C17.4471 25.7169 17.8982 25.7192 18.3493 25.7171C18.7713 25.7172 19.1932 25.7172 19.6152 25.7173C20.0326 25.7174 20.4545 25.7175 20.872 25.7176C21.1907 25.7176 21.5094 25.7177 21.8258 25.72C21.8932 25.72 21.9605 25.72 22.0278 25.72C22.3286 25.7156 22.6091 25.5518 22.7459 25.2803C22.885 25.011 22.8558 24.6766 22.674 24.4319C22.5213 24.2254 22.2789 24.1086 22.023 24.1086C21.7874 24.1063 21.5517 24.1085 21.3138 24.1084C20.8941 24.1061 20.4744 24.1083 20.0547 24.106C19.5924 24.1059 19.1346 24.1058 18.6722 24.1057C18.1515 24.1056 17.6308 24.1055 17.1079 24.1032C16.6164 24.1008 16.1249 24.103 15.6334 24.1006ZM24.0594 27.8009C24.0595 28.2767 24.0596 28.7525 24.0596 29.2283C24.0575 29.6166 24.0598 30.0049 24.0576 30.3932C24.0577 30.7612 24.0578 31.1293 24.0556 31.4996C24.0534 31.9148 24.0558 32.33 24.0536 32.7452C24.0537 33.2525 24.0538 33.7552 24.0539 34.2624C24.0539 34.2773 24.0359 34.2848 24.0253 34.2742C23.7922 34.0412 23.5572 33.8062 23.3243 33.5733C23.0841 33.3331 22.8462 33.0951 22.606 32.8549C22.4713 32.7202 22.3097 32.6259 22.1212 32.599C21.8743 32.563 21.6229 32.6483 21.4457 32.8255L21.4479 32.8233C21.2617 33.0095 21.1764 33.2788 21.2259 33.5347C21.2573 33.7098 21.3471 33.8579 21.4706 33.9814C21.6479 34.1587 21.823 34.3338 22.0003 34.5111C22.2787 34.7895 22.557 35.0678 22.8376 35.3484C23.0868 35.5976 23.3382 35.849 23.5874 36.0982C23.7468 36.2576 23.9062 36.417 24.0655 36.5763C24.1374 36.6482 24.207 36.7178 24.2788 36.7896C24.418 36.9288 24.5953 37.0208 24.7928 37.0388C25.0329 37.0591 25.2641 36.9716 25.4346 36.8055C25.493 36.7472 25.5513 36.6888 25.6074 36.6327C25.7802 36.46 25.953 36.2872 26.1258 36.1144C26.3726 35.8676 26.6194 35.6207 26.8663 35.3739C27.1355 35.1046 27.4048 34.8354 27.6741 34.5661C27.8581 34.3821 28.0398 34.2003 28.2238 34.0163C28.3226 33.9176 28.4101 33.8121 28.4617 33.6797C28.5514 33.4418 28.5244 33.1725 28.3875 32.9593C28.1091 32.5238 27.4941 32.4743 27.1306 32.8334C26.996 32.968 26.8636 33.1004 26.7289 33.235C26.444 33.52 26.159 33.805 25.874 34.0899C25.7978 34.1661 25.6675 34.1122 25.6675 34.0044C25.6675 33.8728 25.6675 33.7412 25.6674 33.6096C25.6674 33.3134 25.6651 33.0149 25.6673 32.7164C25.6672 32.5503 25.6672 32.3887 25.6672 32.2226C25.6671 31.8904 25.667 31.5538 25.667 31.2216C25.667 31.0825 25.6669 30.9433 25.6669 30.8042C25.6668 30.4675 25.6645 30.1286 25.6667 29.7897C25.6667 29.6371 25.6667 29.4845 25.6666 29.3319C25.6666 29.0177 25.6665 28.708 25.6664 28.3937C25.6664 28.2411 25.6664 28.093 25.6664 27.9404C25.6663 27.8416 25.6708 27.7429 25.6528 27.6441C25.5944 27.3209 25.3318 27.0628 25.0108 27.0021C24.6876 26.9392 24.3532 27.085 24.176 27.3611C24.1042 27.4957 24.0593 27.6483 24.0594 27.8009ZM32.8313 21.4444C32.5172 21.7585 32.5263 22.2702 32.8338 22.5867C32.955 22.708 33.0785 22.8314 33.1997 22.9526C33.4421 23.1951 33.6868 23.4397 33.9292 23.6822C34.0681 23.821 33.9703 24.0585 33.774 24.0593C33.4484 24.0607 33.1224 24.0621 32.7982 24.0635C32.3538 24.0634 31.9094 24.0678 31.465 24.0677C31.0498 24.0699 30.6369 24.0698 30.2217 24.072C29.8109 24.0742 29.398 24.0741 28.985 24.0785C28.6686 24.0807 28.3544 24.0806 28.0379 24.0828C27.9661 24.0828 27.8965 24.085 27.8269 24.0828C27.5486 24.0872 27.2883 24.2308 27.1357 24.4642C26.972 24.7177 26.9608 25.0432 27.109 25.3035C27.2482 25.5549 27.5153 25.7099 27.8026 25.7144C28.0158 25.7167 28.229 25.7145 28.4444 25.7145C28.8664 25.7146 29.2883 25.7147 29.708 25.717C30.1659 25.7171 30.6237 25.7172 31.0838 25.7195C31.6 25.7196 32.114 25.722 32.6279 25.7198C33.1104 25.7221 33.593 25.72 34.0755 25.7223C34.1362 25.7223 34.1684 25.8 34.1255 25.843C33.8318 26.1367 33.5394 26.429 33.2453 26.7232C33.0882 26.8802 32.9289 27.0351 32.7741 27.1944C32.5856 27.3874 32.4981 27.6634 32.552 27.9282C32.6149 28.2335 32.8574 28.4804 33.1604 28.55C33.4342 28.6129 33.7147 28.5255 33.9122 28.3325C33.9885 28.2562 34.0648 28.1799 34.1388 28.1058C34.3026 27.942 34.4664 27.7782 34.6302 27.6144C34.9646 27.2801 35.2989 26.9457 35.6333 26.6114C35.9878 26.2568 36.3423 25.9023 36.6991 25.5455C36.7171 25.5276 36.735 25.5096 36.753 25.4917C36.9056 25.3391 37.0133 25.1192 37.0199 24.9015C37.0244 24.695 36.9727 24.4638 36.8291 24.3067C36.7191 24.1877 36.5979 24.0755 36.4811 23.9587C36.2544 23.732 36.0254 23.503 35.7987 23.2763C35.572 23.0496 35.3453 22.8229 35.1208 22.5984C34.8941 22.3717 34.6673 22.1449 34.4406 21.9182C34.2925 21.7701 34.1443 21.6219 33.9984 21.476C33.9131 21.3907 33.8211 21.3166 33.7088 21.2717C33.5136 21.1886 33.2891 21.1886 33.0939 21.2671C32.9996 21.3075 32.9076 21.3681 32.8313 21.4444ZM25.4301 12.9032C25.7443 13.2175 26.0586 13.5317 26.3729 13.846C26.7343 14.2074 27.0957 14.5688 27.4571 14.9302C27.5896 15.0627 27.722 15.1951 27.8544 15.3275C27.9667 15.4398 28.0789 15.552 28.1912 15.6643C28.3011 15.7743 28.4067 15.8843 28.4628 16.0346C28.5706 16.3219 28.5033 16.6541 28.2946 16.8762C28.0859 17.0939 27.7673 17.1791 27.4777 17.0915C27.2892 17.0331 27.159 16.9074 27.0243 16.7728C26.9412 16.6897 26.8559 16.6044 26.7729 16.5213C26.4362 16.1846 26.0995 15.8479 25.7627 15.5112C25.7288 15.4772 25.6707 15.5013 25.6707 15.5493C25.6708 16.0183 25.6709 16.4904 25.671 16.9588C25.6711 17.4121 25.6712 17.87 25.6713 18.3233C25.6713 18.7453 25.6714 19.1672 25.6715 19.5936C25.6716 20.0156 25.6717 20.433 25.6717 20.855C25.6718 21.1737 25.6719 21.4924 25.6742 21.8133C25.6742 21.8896 25.6742 21.9614 25.6742 22.0377C25.672 22.3273 25.5217 22.5943 25.2704 22.7379C25.0078 22.8882 24.6711 22.8792 24.4197 22.7086C24.1975 22.5582 24.0651 22.3045 24.065 22.0352C24.065 21.8018 24.0649 21.5684 24.0649 21.335C24.0648 20.9085 24.0647 20.4821 24.0624 20.0534C24.0601 19.5888 24.0622 19.1243 24.0599 18.6597C24.0598 18.1345 24.0597 17.6093 24.0573 17.0819C24.055 16.5859 24.0571 16.0899 24.0548 15.5939C24.0548 15.5293 23.9767 15.4969 23.931 15.5426C23.8054 15.6682 23.6793 15.7943 23.5544 15.9192C23.3659 16.1077 23.1751 16.2985 22.9867 16.487C22.9104 16.5632 22.8363 16.6373 22.76 16.7136C22.6299 16.8437 22.5065 16.9851 22.3337 17.0591C22.0329 17.1892 21.6761 17.1196 21.4449 16.8884C21.2137 16.6572 21.1463 16.2981 21.2741 15.9996C21.3369 15.8515 21.4469 15.746 21.5568 15.6361C21.6803 15.5127 21.8037 15.3892 21.9271 15.2658C22.0707 15.1222 22.2166 14.9764 22.3602 14.8327C22.5329 14.66 22.708 14.4849 22.8808 14.3122C23.0917 14.1012 23.3049 13.8881 23.5158 13.6771C23.6729 13.52 23.8299 13.363 23.987 13.2059C24.0835 13.1094 24.1777 13.0152 24.2742 12.9187C24.4627 12.7302 24.723 12.636 24.9879 12.6809C25.1562 12.7056 25.3111 12.7842 25.4301 12.9032Z" fill="#343A40"/>
<circle cx="24.8807" cy="24.8587" r="0.738095" fill="#343A40"/>
</g>
<defs>
<clipPath id="clip0_11_4040">
<rect width="47.2381" height="47.2381" fill="white" transform="translate(0.523438 0.523438)"/>
</clipPath>
</defs>
</svg>
