<svg width="892" height="555" viewBox="0 0 892 555" fill="none" xmlns="http://www.w3.org/2000/svg">
<path d="M97.8633 171.043H790.175" stroke="#DED8D5" strokeWidth="1.968" stroke-miterlimit="10"/>
<path d="M781.134 125.66H106.904C101.911 125.66 97.8633 129.708 97.8633 134.701V544.96C97.8633 549.953 101.911 554.001 106.904 554.001H781.134C786.127 554.001 790.175 549.953 790.175 544.96V134.701C790.175 129.708 786.127 125.66 781.134 125.66Z" stroke="#DED8D5" strokeWidth="1.968" stroke-miterlimit="10"/>
<path d="M143.49 148.814C143.49 150.067 143.119 151.291 142.424 152.333C141.728 153.374 140.739 154.186 139.582 154.666C138.424 155.145 137.151 155.271 135.923 155.027C134.694 154.783 133.565 154.18 132.68 153.294C131.794 152.408 131.19 151.28 130.946 150.051C130.702 148.823 130.827 147.549 131.306 146.392C131.785 145.235 132.597 144.246 133.639 143.55C134.68 142.854 135.905 142.482 137.157 142.482C138.837 142.482 140.447 143.149 141.635 144.337C142.822 145.524 143.49 147.135 143.49 148.814Z" fill="#022859"/>
<path d="M168.1 148.814C168.1 150.067 167.729 151.291 167.033 152.333C166.337 153.375 165.348 154.187 164.191 154.666C163.033 155.146 161.76 155.271 160.531 155.027C159.303 154.782 158.174 154.179 157.288 153.293C156.403 152.408 155.8 151.279 155.555 150.051C155.311 148.822 155.436 147.548 155.916 146.391C156.395 145.234 157.207 144.245 158.249 143.549C159.291 142.853 160.515 142.482 161.768 142.482C163.447 142.483 165.057 143.15 166.245 144.337C167.432 145.525 168.099 147.135 168.1 148.814Z" fill="#EAD254"/>
<path d="M192.713 148.814C192.713 150.067 192.342 151.291 191.646 152.333C190.95 153.374 189.961 154.186 188.804 154.666C187.647 155.145 186.374 155.271 185.145 155.027C183.917 154.783 182.788 154.18 181.902 153.294C181.016 152.408 180.413 151.28 180.169 150.051C179.924 148.823 180.05 147.549 180.529 146.392C181.008 145.235 181.82 144.246 182.861 143.55C183.903 142.854 185.127 142.482 186.38 142.482C188.059 142.482 189.67 143.149 190.857 144.337C192.045 145.524 192.712 147.135 192.713 148.814Z" fill="#5377A6"/>
<path d="M880.111 156.812H717.403C712.816 156.812 709.098 160.531 709.098 165.118V315.597C709.098 320.184 712.816 323.902 717.403 323.902H880.111C884.698 323.902 888.417 320.184 888.417 315.597V165.118C888.417 160.531 884.698 156.812 880.111 156.812Z" fill="#EDEDED"/>
<path d="M880.111 156.812H717.403C712.816 156.812 709.098 160.531 709.098 165.118V315.597C709.098 320.184 712.816 323.902 717.403 323.902H880.111C884.698 323.902 888.417 320.184 888.417 315.597V165.118C888.417 160.531 884.698 156.812 880.111 156.812Z" stroke="#DED8D5" strokeWidth="1.968" stroke-miterlimit="10"/>
<path d="M756.738 280.438H841.304C845.914 280.438 849.652 276.7 849.652 272.089V202.784C849.652 198.173 845.914 194.435 841.304 194.435H756.738C752.127 194.435 748.389 198.173 748.389 202.784V272.089C748.389 276.7 752.127 280.438 756.738 280.438Z" fill="#022859"/>
<path d="M822.122 251.735H775.391V220.395H822.122V251.735Z" stroke="white" strokeWidth="1.647" strokeLinecap="round" strokeLinejoin="round"/>
<path d="M775.391 220.395L798.757 238.808L822.122 220.395" stroke="white" strokeWidth="1.647" strokeLinecap="round" strokeLinejoin="round"/>
<path d="M164.093 298.777H8.92035C4.54606 298.777 1 302.323 1 306.698V441.987C1 446.361 4.54606 449.907 8.92035 449.907H164.093C168.467 449.907 172.013 446.361 172.013 441.987V306.698C172.013 302.323 168.467 298.777 164.093 298.777Z" fill="#EDEDED"/>
<path d="M164.093 298.777H8.92035C4.54606 298.777 1 302.323 1 306.698V441.987C1 446.361 4.54606 449.907 8.92035 449.907H164.093C168.467 449.907 172.013 446.361 172.013 441.987V306.698C172.013 302.323 168.467 298.777 164.093 298.777Z" stroke="#DED8D5" strokeWidth="1.968" stroke-miterlimit="10"/>
<path d="M126.343 324.662H45.8643C40.781 324.662 36.6602 328.783 36.6602 333.866V411.588C36.6602 416.671 40.781 420.792 45.8643 420.792H126.343C131.427 420.792 135.547 416.671 135.547 411.588V333.866C135.547 328.783 131.427 324.662 126.343 324.662Z" fill="#024873"/>
<path d="M66.9393 353.854C63.0291 357.764 60.3662 362.746 59.2873 368.169C58.2084 373.593 58.7621 379.215 60.8782 384.324C62.9943 389.432 66.5779 393.799 71.1757 396.871C75.7736 399.943 81.1792 401.583 86.709 401.583C92.2388 401.583 97.6444 399.943 102.242 396.871C106.84 393.799 110.424 389.432 112.54 384.324C114.656 379.215 115.21 373.593 114.131 368.169C113.052 362.746 110.389 357.764 106.479 353.854C101.221 348.638 94.1151 345.711 86.709 345.711C79.3029 345.711 72.1969 348.638 66.9393 353.854ZM106.415 357.874H97.5047C96.5758 354.988 95.4168 352.18 94.0387 349.479C98.9178 350.965 103.233 353.894 106.415 357.88V357.874ZM76.4429 371.984C76.4449 368.33 76.8894 364.69 77.7669 361.144H95.6511C96.5292 364.69 96.9738 368.33 96.9751 371.984H76.4429ZM96.8656 375.253C96.6016 378.923 95.9581 382.555 94.9454 386.093H78.4739C77.46 382.556 76.816 378.923 76.5524 375.253H96.8656ZM86.709 348.396C88.0315 348.395 89.3522 348.497 90.6588 348.702C92.3059 351.62 93.6636 354.692 94.7125 357.874H78.7055C79.7543 354.692 81.1121 351.62 82.7592 348.702C84.066 348.499 85.3866 348.399 86.709 348.401V348.396ZM79.3778 349.479C77.9992 352.18 76.8402 354.987 75.9119 357.874H67.0017C70.1846 353.892 74.4995 350.966 79.3778 349.484V349.479ZM64.7821 361.145H74.9872C74.1049 364.693 73.6254 368.329 73.5579 371.985H61.5394C61.7809 368.172 62.89 364.464 64.7821 361.145ZM64.7821 386.1C62.8891 382.781 61.78 379.073 61.5394 375.26H73.6078C73.7963 378.922 74.3669 382.555 75.3102 386.1H64.7821ZM67.0003 389.369H76.2682C77.224 392.276 78.3755 395.115 79.7147 397.867C74.7008 396.417 70.2601 393.447 67.0045 389.367L67.0003 389.369ZM86.7048 398.849C85.6001 398.849 84.4965 398.777 83.4011 398.634C81.8928 395.636 80.5867 392.541 79.4915 389.369H93.9195C92.8232 392.54 91.5171 395.636 90.0099 398.634C88.9154 398.776 87.8128 398.848 86.709 398.847L86.7048 398.849ZM93.6935 397.867C95.0326 395.115 96.1836 392.276 97.1387 389.369H106.411C103.154 393.448 98.7123 396.417 93.6977 397.866L93.6935 397.867ZM108.632 386.1H98.1036C99.0485 382.556 99.6191 378.922 99.806 375.26H111.874C111.635 379.072 110.527 382.78 108.636 386.1H108.632ZM111.874 371.99H99.856C99.7884 368.335 99.3089 364.699 98.4266 361.15H108.632C110.525 364.469 111.636 368.176 111.879 371.989L111.874 371.99Z" fill="white"/>
<path d="M154.843 86.1323H14.2663C12.8717 86.1323 11.5342 85.5782 10.548 84.5921C9.56183 83.6059 9.00781 82.2684 9.00781 80.8737C9.00781 79.4791 9.56183 78.1416 10.548 77.1554C11.5342 76.1693 12.8717 75.6152 14.2663 75.6152H154.844C156.239 75.6152 157.577 76.1693 158.563 77.1554C159.549 78.1416 160.103 79.4791 160.103 80.8737C160.103 81.5644 159.967 82.2483 159.703 82.8864C159.438 83.5245 159.051 84.1042 158.562 84.5926C158.074 85.0809 157.494 85.4682 156.856 85.7324C156.218 85.9966 155.534 86.1324 154.843 86.1323Z" fill="#022859"/>
<path d="M885.836 429.515H817.606C816.212 429.515 814.874 428.961 813.888 427.975C812.902 426.989 812.348 425.651 812.348 424.257C812.348 422.862 812.902 421.524 813.888 420.538C814.874 419.552 816.212 418.998 817.606 418.998H885.836C887.231 418.998 888.569 419.552 889.555 420.538C890.541 421.524 891.095 422.862 891.095 424.257C891.095 425.651 890.541 426.989 889.555 427.975C888.569 428.961 887.231 429.515 885.836 429.515Z" fill="#A0E3F2"/>
<path d="M838.05 474.584H829.713C827.522 474.584 825.746 476.36 825.746 478.55V486.378C825.746 488.568 827.522 490.344 829.713 490.344H838.05C840.241 490.344 842.017 488.568 842.017 486.378V478.55C842.017 476.36 840.241 474.584 838.05 474.584Z" fill="#022859"/>
<path d="M47.7494 511.016H39.4117C37.2211 511.016 35.4453 512.791 35.4453 514.982V522.809C35.4453 525 37.2211 526.776 39.4117 526.776H47.7494C49.94 526.776 51.7158 525 51.7158 522.809V514.982C51.7158 512.791 49.94 511.016 47.7494 511.016Z" fill="#022859"/>
<path d="M685.866 38.4727H547.113C544.807 38.4727 542.938 40.3422 542.938 42.6484V76.5258C542.938 78.832 544.807 80.7016 547.113 80.7016H685.866C688.172 80.7016 690.041 78.832 690.041 76.5258V42.6484C690.041 40.3422 688.172 38.4727 685.866 38.4727Z" fill="#022859"/>
<path d="M562.977 53.5195H661.656" stroke="white" strokeWidth="1.18" stroke-miterlimit="10"/>
<path d="M562.977 63.6465H603.17" stroke="white" strokeWidth="1.18" stroke-miterlimit="10"/>
<path d="M558.961 75.9219V92.3795L579.658 75.9219H558.961Z" fill="#022859"/>
<path d="M274.94 0H344.963C347.339 0 349.617 0.943572 351.296 2.62314C352.976 4.30271 353.919 6.5807 353.919 8.95597V74.2541C353.919 76.6294 352.976 78.9074 351.296 80.5869C349.617 82.2665 347.339 83.2101 344.963 83.2101H277.798C274.665 83.2101 271.66 81.9657 269.445 79.7505C267.23 77.5354 265.985 74.531 265.984 71.3982V8.95597C265.984 6.5807 266.928 4.30271 268.608 2.62314C270.287 0.943572 272.565 0 274.94 0Z" fill="#022859"/>
<path d="M330.471 47.7598L325.464 42.7522C325.064 42.287 324.571 41.9109 324.016 41.6482C323.462 41.3855 322.858 41.2421 322.245 41.2272C321.025 41.2617 319.869 41.7753 319.026 42.6565L316.165 45.518L315.629 45.2505C315.322 45.1194 315.023 44.9699 314.735 44.8027C311.906 42.9599 309.399 40.6649 307.313 38.0094C306.378 36.8967 305.596 35.6634 304.988 34.3425C305.704 33.7172 306.329 33.0019 306.956 32.3766L307.76 31.5711C308.237 31.1618 308.619 30.6543 308.881 30.0833C309.144 29.5124 309.279 28.8915 309.279 28.2632C309.279 27.6349 309.144 27.0141 308.881 26.4431C308.619 25.8722 308.237 25.3647 307.76 24.9553L305.256 22.4529C304.966 22.1752 304.698 21.8763 304.452 21.5587L302.752 19.859C301.91 18.9779 300.753 18.4643 299.535 18.4297C298.929 18.4355 298.331 18.5654 297.777 18.8112C297.223 19.057 296.726 19.4136 296.315 19.859L293.185 22.9895C292.014 24.1685 291.288 25.7165 291.129 27.3704C291.027 29.6919 291.424 32.0083 292.292 34.1636C293.862 38.4707 296.227 42.4442 299.266 45.8771C303.194 50.5682 308.069 54.3769 313.572 57.054C316.087 58.3298 318.81 59.1471 321.612 59.4677H322.238C323.246 59.4834 324.246 59.2841 325.171 58.8832C326.096 58.4824 326.925 57.889 327.603 57.1428L327.692 57.054C328.183 56.474 328.721 55.9356 329.301 55.4444L330.464 54.2827C330.909 53.8638 331.263 53.3586 331.505 52.7981C331.748 52.2375 331.873 51.6334 331.874 51.0227C331.874 50.412 331.75 49.8077 331.509 49.2466C331.268 48.6855 330.915 48.1796 330.471 47.7598ZM328.414 52.4083L327.341 53.4813C326.716 54.0179 326.179 54.6445 325.553 55.2698C325.142 55.7083 324.642 56.0546 324.088 56.286C323.533 56.5173 322.936 56.6284 322.335 56.6118H321.887C319.445 56.3579 317.076 55.6288 314.914 54.4657C309.788 51.9515 305.249 48.3871 301.591 44.0041C298.839 40.7804 296.634 37.1274 295.063 33.1904C294.233 31.4657 293.863 29.5551 293.99 27.6449C294.047 26.6497 294.496 25.7175 295.238 25.0524L298.278 22.0121C298.598 21.6509 299.045 21.427 299.526 21.3868C299.767 21.3971 300.002 21.4581 300.217 21.5658C300.432 21.6736 300.622 21.8257 300.774 22.0121L302.384 23.6217C302.659 23.9418 302.958 24.2408 303.278 24.5159L305.782 27.0197C306.127 27.3516 306.348 27.792 306.408 28.2674C306.368 28.7485 306.143 29.1954 305.782 29.5151L304.977 30.3192L302.741 32.5554L302.652 32.6442C302.339 32.9125 302.118 33.2732 302.022 33.6746C301.925 34.0759 301.958 34.4975 302.116 34.879V34.9691C302.873 36.7065 303.866 38.3314 305.066 39.7979C307.346 42.7073 310.096 45.2156 313.203 47.2191C313.571 47.4615 313.96 47.6708 314.366 47.8444C314.673 47.9757 314.971 48.1252 315.26 48.2922L315.349 48.3809C315.756 48.5986 316.224 48.673 316.678 48.592C317.132 48.511 317.546 48.2794 317.853 47.9345L320.982 44.804C321.118 44.6107 321.299 44.4529 321.509 44.344C321.719 44.2351 321.953 44.1782 322.189 44.1782C322.426 44.1782 322.659 44.2351 322.869 44.344C323.079 44.4529 323.26 44.6107 323.397 44.804L328.403 49.8116C328.594 49.9697 328.747 50.1676 328.853 50.3915C328.959 50.6154 329.014 50.8598 329.015 51.1074C329.016 51.355 328.963 51.5998 328.859 51.8246C328.755 52.0494 328.603 52.2486 328.414 52.4083Z" fill="white"/>
<mask id="mask0_12_3228" style="mask-type:luminance" maskUnits="userSpaceOnUse" x="161" y="91" width="638" height="462">
<path d="M798.356 91.6562H161.633V552.88H798.356V91.6562Z" fill="white"/>
</mask>
<g mask="url(#mask0_12_3228)">
<path d="M637.143 398.275L586.541 391.537L586.936 396.561L543.667 402.32C543.667 402.32 515.779 472.289 540.358 626.171H575.554L588.221 470.136H592.72L604.988 626.171H640.184C664.763 472.292 637.143 398.275 637.143 398.275Z" fill="#8E716C"/>
<path d="M572.129 470.139H608.848" stroke="#024873" strokeWidth="1.233" strokeLinecap="round" strokeLinejoin="round"/>
<path d="M666.697 324.46C662.368 317.549 638.048 317.794 636.764 317.643C630.19 316.872 640.98 369.188 654.657 414.919C655.272 416.989 656.318 418.906 657.725 420.544C659.132 422.182 660.869 423.505 662.822 424.426C664.775 425.348 666.9 425.847 669.059 425.891C671.218 425.935 673.362 425.523 675.351 424.682L675.628 424.567C678.862 423.199 681.53 420.765 683.189 417.67C684.847 414.575 685.396 411.005 684.745 407.555C678.233 373.047 671.705 332.444 666.697 324.46Z" fill="#FFB1A5"/>
<path d="M672.493 343.377L641.439 355.426L638.527 340.694L670.68 332.674L672.493 343.377Z" fill="#F3978E"/>
<path d="M678.359 372.851C678.359 372.851 663.65 392.605 664.357 391.697C665.064 390.789 675.893 359.773 675.893 359.773L678.359 372.851Z" fill="#F3978E"/>
<path d="M699.388 346.299L657.226 400.922C655.917 402.618 654.974 404.567 654.456 406.645C653.938 408.724 653.857 410.888 654.217 413C654.577 415.111 655.37 417.126 656.548 418.915C657.725 420.705 659.261 422.231 661.058 423.398C662.852 424.562 664.868 425.343 666.979 425.691C669.089 426.039 671.249 425.946 673.322 425.418C675.395 424.891 677.337 423.94 679.024 422.626C680.712 421.311 682.11 419.662 683.129 417.782L718.224 353.038L699.388 346.299Z" fill="#FFB1A5"/>
<path d="M710.299 360.327C707.026 359.269 704.14 357.265 702.006 354.567C699.872 351.869 698.586 348.599 698.31 345.171C698.034 341.742 698.781 338.308 700.457 335.304C702.133 332.3 704.662 329.861 707.724 328.294C710.786 326.727 714.244 326.103 717.661 326.502C721.078 326.9 724.3 328.303 726.919 330.533C729.538 332.762 731.438 335.719 732.377 339.028C733.316 342.337 733.253 345.85 732.196 349.123C730.778 353.513 727.674 357.159 723.568 359.26C719.462 361.361 714.689 361.745 710.299 360.327Z" fill="#FFB1A5"/>
<path d="M728.329 333.323C728.329 333.323 733.089 328.381 724.646 324.918C716.203 321.455 705.762 322.249 699.098 338.431L728.329 333.323Z" fill="#FFB1A5"/>
<path d="M737.074 298.801L754.728 306.455C754.962 306.562 755.17 306.717 755.339 306.91C755.509 307.103 755.636 307.33 755.711 307.576C755.786 307.822 755.809 308.081 755.777 308.336C755.745 308.591 755.66 308.836 755.526 309.056L732.299 352.435C732.05 352.92 731.631 353.295 731.122 353.491C730.614 353.686 730.051 353.687 729.542 353.495L711.888 345.84C711.654 345.734 711.445 345.578 711.276 345.385C711.106 345.192 710.98 344.965 710.904 344.719C710.829 344.474 710.806 344.215 710.838 343.96C710.87 343.705 710.956 343.459 711.089 343.24L734.313 299.86C734.563 299.375 734.982 298.999 735.491 298.803C736.001 298.608 736.564 298.607 737.074 298.801Z" fill="#372F5F"/>
<path d="M735.388 298.032L753.042 305.687C753.276 305.793 753.484 305.949 753.654 306.142C753.823 306.335 753.95 306.562 754.025 306.808C754.101 307.053 754.123 307.312 754.091 307.567C754.06 307.822 753.974 308.068 753.841 308.287L730.616 351.667C730.367 352.151 729.948 352.527 729.439 352.722C728.931 352.918 728.368 352.919 727.859 352.726L710.205 345.072C709.971 344.965 709.762 344.81 709.592 344.617C709.423 344.424 709.296 344.197 709.221 343.951C709.145 343.705 709.123 343.446 709.155 343.191C709.187 342.936 709.272 342.691 709.406 342.471L732.63 299.092C732.88 298.607 733.299 298.232 733.807 298.036C734.316 297.841 734.878 297.839 735.388 298.032Z" fill="#261B43"/>
<path d="M733.395 302.447L748.908 309.173L729.981 344.525L714.469 337.8L733.395 302.447Z" fill="#E6E6E6"/>
<path d="M748.908 309.173L714.469 337.802L733.395 302.449L748.908 309.173Z" fill="white"/>
<path d="M719.576 323.477C722.188 324.041 724.707 324.975 727.056 326.249C727.818 326.676 728.42 327.341 728.769 328.142C729.117 328.943 729.193 329.837 728.985 330.686C728.792 331.462 728.368 332.162 727.77 332.693C727.172 333.224 726.427 333.562 725.633 333.662L716.455 334.82C716.455 334.82 711.667 343.073 705.41 344L711.15 329.509L719.576 323.477Z" fill="#FFB1A5"/>
<path d="M602.367 255.671C601.353 255.671 667.451 264.821 678.358 340.176L644.059 345.431L637.144 402.32H541.462L522.469 297.205C522.469 297.205 543.668 266.824 583.028 255.668L602.367 255.671Z" fill="#56DFED"/>
<path d="M644.062 345.432L647.039 312.527" stroke="#024873" strokeWidth="1.233" strokeLinecap="round" strokeLinejoin="round"/>
<path d="M608.65 256.753V230.574H577.975V257.054C575.149 257.961 572.394 259.079 569.734 260.396L593.666 274.651L618.124 260.399C615.134 258.785 611.95 257.56 608.65 256.753Z" fill="#FFB1A5"/>
<path d="M577.688 233.768C577.688 233.768 583.197 248.396 597.902 247.133C611.419 245.972 609.27 225.699 609.27 225.699L577.688 233.768Z" fill="#024873"/>
<path d="M564.311 214.316C559.503 218.678 548.751 202.136 553.397 197.491C558.043 192.847 561.586 200.134 561.586 200.134L563.666 205.071L565.23 211.758L565.603 213.511L564.311 214.316Z" fill="#F3978E"/>
<path d="M555.645 203.351C555.645 203.351 559.284 201.714 562.517 206.991" stroke="#024873" strokeWidth="0.993" strokeLinecap="round" strokeLinejoin="round"/>
<path d="M621.172 213.814C625.593 218.567 637.704 202.994 633.469 197.974C629.233 192.954 625.084 199.915 625.084 199.915L622.601 204.659L620.476 211.19L619.957 212.903L621.172 213.814Z" fill="#F3978E"/>
<path d="M630.735 203.622C630.735 203.622 627.246 201.681 623.578 206.672" stroke="#024873" strokeWidth="0.993" strokeLinecap="round" strokeLinejoin="round"/>
<path d="M555.879 181.712C555.879 203.609 572.574 213.991 593.172 213.991C613.771 213.991 630.466 203.609 630.466 181.712C630.466 159.816 613.771 144.918 593.172 144.918C572.574 144.918 555.879 159.815 555.879 181.712Z" fill="#024873"/>
<path d="M560.945 183.235C560.962 194.433 562.235 205.594 564.741 216.508C566.598 224.568 571.82 230.201 579.201 234.734L580.546 235.566C584.431 237.923 588.878 239.192 593.422 239.243C597.966 239.293 602.44 238.122 606.377 235.852C614.373 231.189 619.974 225.038 621.696 216.393C623.697 205.445 624.859 194.362 625.173 183.238C625.173 183.238 628.155 149.305 593.518 149.965C558.881 150.624 560.945 183.235 560.945 183.235Z" fill="#FFB1A5"/>
<path d="M590.957 202.602V207.297C590.957 207.567 591.008 207.835 591.108 208.086C591.315 208.547 591.681 208.918 592.14 209.13C592.599 209.342 593.118 209.381 593.604 209.24L595.758 208.668" stroke="#024873" strokeWidth="1.232" strokeLinecap="round" strokeLinejoin="round"/>
<path d="M585.451 184.39L568.238 188.426C568.238 188.426 569.02 184.045 576.063 182.452C583.106 180.859 585.451 184.39 585.451 184.39Z" fill="#024873"/>
<path d="M600.734 184.39L617.357 188.426C617.357 188.426 616.601 184.045 609.801 182.452C603.001 180.859 600.734 184.39 600.734 184.39Z" fill="#024873"/>
<path d="M578.911 199.93C580.514 199.93 581.814 198.634 581.814 197.035C581.814 195.437 580.514 194.141 578.911 194.141C577.308 194.141 576.008 195.437 576.008 197.035C576.008 198.634 577.308 199.93 578.911 199.93Z" fill="#024873"/>
<path d="M609.33 197.037C609.331 197.611 609.162 198.173 608.844 198.652C608.526 199.13 608.073 199.503 607.542 199.724C607.012 199.945 606.428 200.003 605.864 199.892C605.301 199.781 604.783 199.505 604.376 199.099C603.969 198.693 603.692 198.176 603.58 197.613C603.467 197.049 603.524 196.465 603.744 195.934C603.963 195.403 604.335 194.95 604.813 194.63C605.29 194.311 605.852 194.141 606.427 194.141C606.807 194.14 607.185 194.215 607.537 194.36C607.889 194.505 608.208 194.718 608.478 194.987C608.748 195.256 608.962 195.576 609.108 195.927C609.254 196.279 609.329 196.656 609.33 197.037Z" fill="#024873"/>
<path d="M581.812 214.705H604.2C604.2 214.705 594.277 226.775 581.812 214.705Z" fill="white"/>
<path d="M586.42 206.892C591.241 202.071 591.241 194.254 586.42 189.432C581.598 184.611 573.781 184.611 568.96 189.432C564.139 194.254 564.139 202.071 568.96 206.892C573.781 211.713 581.598 211.713 586.42 206.892Z" stroke="#022859" strokeWidth="1.342" stroke-miterlimit="10"/>
<path d="M616.748 206.892C621.569 202.071 621.569 194.254 616.748 189.432C611.926 184.611 604.11 184.611 599.288 189.432C594.467 194.254 594.467 202.071 599.288 206.892C604.11 211.713 611.926 211.713 616.748 206.892Z" stroke="#022859" strokeWidth="1.342" stroke-miterlimit="10"/>
<path d="M590.035 198.162C590.035 198.162 592.959 195.433 595.672 198.162" stroke="#022859" strokeWidth="1.342" stroke-miterlimit="10"/>
<path d="M565.342 198.161L561.453 198.062" stroke="#022859" strokeWidth="1.342" stroke-miterlimit="10"/>
<path d="M620.363 198.161L624.276 198.062" stroke="#022859" strokeWidth="1.342" stroke-miterlimit="10"/>
<path d="M624.73 194.485C624.73 194.485 610.882 175.769 614.076 156.797C617.434 158.779 620.327 161.459 622.562 164.654C624.797 167.849 626.321 171.486 627.032 175.32C629.712 188.672 624.73 194.485 624.73 194.485Z" fill="#024873"/>
<path d="M560.92 195.751C560.92 195.751 577.002 174.486 573.814 155.52C566.768 160.032 561.795 167.15 559.979 175.317C557.302 188.672 560.92 195.751 560.92 195.751Z" fill="#024873"/>
<path d="M623.568 164.265C623.568 164.265 605.785 183.732 557.133 180.399C557.133 180.399 564.583 151.84 588.161 148.79C588.161 148.79 615.385 145.539 623.568 164.265Z" fill="#024873"/>
<path d="M645.252 145.21C647.296 132.545 638.686 120.62 626.02 118.575C613.354 116.531 601.43 125.141 599.385 137.807C597.341 150.473 605.951 162.398 618.617 164.442C631.283 166.486 643.207 157.876 645.252 145.21Z" fill="#024873"/>
<path d="M338.746 398.221L295.479 392.459L295.874 387.434L245.271 394.173C245.271 394.173 217.652 468.19 242.231 622.072H277.427L289.695 466.037H294.193L306.861 622.072H342.057C366.634 468.19 338.746 398.221 338.746 398.221Z" fill="#024873"/>
<path d="M335.295 187.71C328.84 179.972 323.911 171.081 320.765 161.507C316.488 149.4 302.481 154.322 302.481 154.322C302.481 154.322 290.809 139.306 273.245 144.536C255.681 149.765 249.578 162.264 249.22 177.124C248.863 191.983 237.174 194.308 228.174 211.497C212.286 241.845 239.036 267.407 287.731 260.316L287.798 259.843C293.601 261.445 299.643 262.008 305.643 261.507C364.142 258.035 358.497 215.006 335.295 187.71Z" fill="#024873"/>
<path d="M316.145 210.215C320.953 214.575 331.704 198.034 327.059 193.39C322.413 188.745 318.868 196.032 318.868 196.032L316.788 200.969L315.224 207.657L314.852 209.408L316.145 210.215Z" fill="#F3978E"/>
<path d="M324.814 199.248C324.814 199.248 321.174 197.611 317.941 202.886" stroke="#024873" strokeWidth="0.993" strokeLinecap="round" strokeLinejoin="round"/>
<path d="M259.283 209.712C254.862 214.463 242.751 198.898 246.986 193.87C251.222 188.841 255.371 195.811 255.371 195.811L257.854 200.555L259.979 207.086L260.498 208.8L259.283 209.712Z" fill="#F3978E"/>
<path d="M249.719 199.52C249.719 199.52 253.207 197.579 256.875 202.57" stroke="#024873" strokeWidth="0.993" strokeLinecap="round" strokeLinejoin="round"/>
<path d="M324.571 177.609C324.571 199.506 307.878 209.89 287.278 209.89C266.678 209.89 249.984 199.506 249.984 177.609C249.984 155.713 266.679 140.816 287.278 140.816C307.877 140.816 324.571 155.713 324.571 177.609Z" fill="#024873"/>
<path d="M302.48 226.471H271.805V266.192H302.48V226.471Z" fill="#FFB1A5"/>
<path d="M267.328 223.994C267.328 223.994 275.867 241.035 286.371 243.696C289.195 244.371 292.154 244.2 294.881 243.204C298.835 241.802 303.849 235.909 304.701 229.386L305.097 225.659C305.097 225.659 286.405 235.837 267.328 223.994Z" fill="#024873"/>
<path d="M319.507 179.132C319.49 190.33 318.217 201.491 315.711 212.405C313.855 220.466 308.632 226.099 301.251 230.633L299.907 231.465C296.021 233.822 291.574 235.092 287.03 235.142C282.486 235.193 278.012 234.022 274.076 231.752C266.078 227.09 260.478 220.938 258.755 212.293C256.755 201.346 255.593 190.262 255.279 179.138C255.279 179.138 252.297 145.204 286.934 145.865C321.571 146.526 319.507 179.132 319.507 179.132Z" fill="#FFB1A5"/>
<path d="M284.973 200.336V203.125C284.973 203.395 285.024 203.662 285.124 203.913C285.331 204.373 285.698 204.742 286.157 204.954C286.615 205.165 287.135 205.203 287.619 205.062L289.774 204.492" stroke="#024873" strokeWidth="1.23" strokeLinecap="round" strokeLinejoin="round"/>
<path d="M292.191 181.943L310.619 186.304C310.619 186.304 309.787 181.568 302.243 179.848C294.698 178.127 292.191 181.943 292.191 181.943Z" fill="#024873"/>
<path d="M282.515 181.943L263.848 186.304C263.848 186.304 264.696 181.569 272.331 179.848C279.966 178.128 282.515 181.943 282.515 181.943Z" fill="#024873"/>
<path d="M275.83 193.379C275.833 193.953 275.665 194.516 275.348 194.996C275.031 195.476 274.579 195.85 274.049 196.073C273.519 196.295 272.935 196.355 272.37 196.245C271.806 196.134 271.287 195.859 270.88 195.454C270.472 195.049 270.194 194.531 270.08 193.968C269.967 193.404 270.024 192.82 270.243 192.288C270.462 191.757 270.834 191.302 271.312 190.983C271.79 190.663 272.352 190.492 272.926 190.492C273.307 190.491 273.683 190.565 274.035 190.709C274.386 190.854 274.706 191.066 274.976 191.334C275.245 191.602 275.46 191.921 275.606 192.271C275.752 192.622 275.828 192.998 275.83 193.379Z" fill="#024873"/>
<path d="M303.353 193.379C303.356 193.953 303.189 194.516 302.872 194.996C302.555 195.476 302.103 195.85 301.572 196.073C301.042 196.295 300.458 196.355 299.894 196.245C299.33 196.134 298.811 195.859 298.403 195.454C297.995 195.049 297.717 194.531 297.604 193.968C297.491 193.404 297.547 192.82 297.766 192.288C297.985 191.757 298.358 191.302 298.835 190.983C299.313 190.663 299.875 190.492 300.45 190.492C300.83 190.491 301.207 190.565 301.558 190.709C301.91 190.854 302.23 191.066 302.499 191.334C302.769 191.602 302.983 191.921 303.129 192.271C303.276 192.622 303.352 192.998 303.353 193.379Z" fill="#024873"/>
<path d="M273.91 209.891H299.39C299.39 209.891 297.588 216.892 286.038 216.892C283.57 216.944 281.135 216.319 278.997 215.085C276.859 213.85 275.099 212.054 273.91 209.891Z" fill="white"/>
<path d="M255.725 190.385C255.725 190.385 269.573 171.662 266.379 152.695C263.022 154.678 260.128 157.358 257.893 160.553C255.658 163.749 254.134 167.386 253.424 171.22C250.747 184.571 255.725 190.385 255.725 190.385Z" fill="#024873"/>
<path d="M319.53 189.76C319.53 189.76 303.449 170.389 306.637 151.422C313.682 155.935 318.656 163.052 320.472 171.219C323.149 184.57 319.53 189.76 319.53 189.76Z" fill="#024873"/>
<path d="M256.887 160.164C256.887 160.164 272.777 181.523 321.429 178.187C321.429 178.187 315.871 147.729 292.293 144.687C292.293 144.69 265.069 141.439 256.887 160.164Z" fill="#024873"/>
<path d="M212.535 492.174C211.828 493.283 253.028 312.909 240.796 315.636C239.68 315.886 218.256 317.875 215.073 324.348C205.843 343.116 199.223 490.807 199.223 490.807L212.535 492.174Z" fill="#FFB1A5"/>
<path d="M199.224 490.809C199.224 490.809 192.587 521.619 217.681 524.988C218.485 525.096 219.303 524.923 219.994 524.498C220.686 524.073 221.21 523.423 221.478 522.656L221.55 522.447C221.833 521.608 221.79 520.694 221.429 519.886C221.068 519.077 220.417 518.434 219.604 518.084C215.511 516.254 209.163 511.629 212.313 501.129C212.313 501.129 215.941 500.684 217.944 507.454C218.062 507.863 218.269 508.242 218.549 508.563C218.83 508.884 219.178 509.14 219.568 509.312C219.958 509.484 220.382 509.568 220.808 509.558C221.234 509.549 221.653 509.445 222.035 509.256C222.574 508.984 223.015 508.552 223.297 508.018C223.579 507.485 223.688 506.877 223.61 506.279C223.009 501.538 220.623 490.125 211.473 487.063L199.224 490.809Z" fill="#FFB1A5"/>
<path d="M207.672 367.687C207.672 367.687 231.411 401.119 231.535 400.472C231.66 399.824 239.837 353.536 239.837 353.536L211.031 341.059L207.672 367.687Z" fill="#F3978E"/>
<path d="M273.63 259.653C274.643 259.653 214.961 260.716 204.055 336.075L238.354 341.329L245.269 398.222H340.951L359.944 293.107C359.944 293.107 346.439 270.333 307.077 259.176L273.63 259.653Z" fill="#5377A6"/>
<path d="M244.457 268.762C244.457 268.762 252.892 279.958 287.45 279.958C321.693 279.958 330.441 268.174 330.441 268.174C330.441 268.174 310.258 256.898 286.838 253.25C272.031 256.327 257.753 261.553 244.457 268.762Z" fill="#FFB1A5"/>
<path d="M361.883 507.502L361.966 657.792H436.312L442.025 507.502H361.883Z" fill="#005683"/>
<path d="M523.313 507.502L523.23 657.792H448.881L443.168 507.502H523.313Z" fill="#005683"/>
<path d="M482.709 507.502H405.836V559.716H482.709V507.502Z" fill="#005683"/>
<path d="M570.282 376.344C574.892 427.271 570.03 464.378 571.375 558.086L526.998 559.944L520.387 384.537L570.282 376.344Z" fill="#FFB1A5"/>
<path d="M525.86 416.085C525.86 416.085 553.341 413.569 572.128 401.176L571.633 390.27L525.844 396.508L525.86 416.085Z" fill="#F3978E"/>
<path d="M481.773 259.092C481.773 259.092 569.058 281.044 584.874 391.834C584.874 391.834 542.154 410.355 499.343 402.389L508.974 365.332L481.773 259.092Z" fill="#022859"/>
<path d="M221.052 305.162L286.042 381.913L266.155 437.923C266.155 437.923 216.758 369.246 194.562 316.164L221.052 305.162Z" fill="#FFB1A5"/>
<path d="M223.191 307.935C223.191 307.935 200.37 320.828 194.565 316.164C184.421 308.014 176.039 278.178 176.039 278.178C176.039 278.178 218.714 262.096 218.314 262.717C217.913 263.338 223.191 307.935 223.191 307.935Z" fill="#FFB1A5"/>
<path d="M223.191 307.933C222.787 305.635 231.648 280.851 234.698 271.556C234.856 271.003 234.896 270.423 234.814 269.853C234.733 269.283 234.533 268.737 234.227 268.25C233.921 267.762 233.516 267.345 233.038 267.025C232.559 266.705 232.019 266.488 231.452 266.391C230.457 266.128 229.403 266.198 228.45 266.588C227.497 266.979 226.698 267.669 226.173 268.555L215.469 286.855L223.191 307.933Z" fill="#FFB1A5"/>
<path d="M222.409 281.141L215.061 244.577C214.829 243.393 214.142 242.347 213.147 241.665C212.152 240.982 210.929 240.718 209.741 240.928C208.738 241.102 207.841 241.656 207.235 242.475C206.629 243.293 206.361 244.314 206.488 245.324L209.69 272.55L222.409 281.141Z" fill="#FFB1A5"/>
<path d="M207.795 267.654L197.813 241.544C197.408 240.439 196.593 239.532 195.537 239.012C194.481 238.492 193.265 238.399 192.143 238.752C191.198 239.061 190.405 239.715 189.921 240.583C189.437 241.451 189.299 242.47 189.533 243.435L196.939 273.606L207.795 267.654Z" fill="#FFB1A5"/>
<path d="M197.067 275.352L184.44 249.698C183.883 248.551 182.911 247.659 181.721 247.202C180.531 246.746 179.211 246.759 178.03 247.24C177.502 247.47 177.024 247.802 176.625 248.217C176.225 248.632 175.912 249.122 175.702 249.659C175.492 250.195 175.391 250.768 175.403 251.344C175.416 251.92 175.542 252.488 175.775 253.015L185.841 277.235L197.067 275.352Z" fill="#FFB1A5"/>
<path d="M176.037 278.179L166.129 262.462C165.928 262.037 165.814 261.577 165.793 261.108C165.771 260.639 165.843 260.171 166.004 259.73C166.165 259.289 166.412 258.884 166.731 258.539C167.049 258.194 167.433 257.916 167.86 257.72C168.724 257.349 169.691 257.289 170.595 257.552C171.498 257.815 172.282 258.384 172.812 259.161L185.844 277.236L176.037 278.179Z" fill="#FFB1A5"/>
<path d="M220.409 278.392C220.409 278.392 205.529 276.831 204 296.662" stroke="#024873" strokeWidth="1.532" strokeLinecap="round" strokeLinejoin="round"/>
<path d="M252.977 411.726C252.977 411.726 265.2 454.029 289.557 448.404C313.915 442.78 351.882 390.756 351.882 390.756L343.385 301.926L275.019 386.069L252.977 411.726Z" fill="#FFB1A5"/>
<path d="M296.219 359.932C296.219 359.932 319.3 394.748 338.987 407.024L351.873 390.756L302.157 352.297L296.219 359.932Z" fill="#F3978E"/>
<path d="M397.206 257.17C397.206 257.17 329.44 272.444 293.328 351.202C293.328 351.202 315.147 384.078 350.126 398.691L373.545 370.001L397.206 257.17Z" fill="#022859"/>
<path d="M397.206 256.928C381.256 265.113 366.703 275.774 354.09 288.514L359.312 518.735H526.133L525.592 289.706C525.592 289.706 504.565 269.128 481.783 259.096C462.42 250.571 416.025 247.276 397.206 256.928Z" fill="#022859"/>
<path d="M452.938 322.701H499.344V345.905C499.344 348.952 498.743 351.969 497.577 354.784C496.411 357.599 494.702 360.157 492.547 362.312C490.393 364.466 487.835 366.175 485.019 367.341C482.204 368.507 479.187 369.107 476.14 369.107C469.986 369.107 464.085 366.663 459.733 362.311C455.382 357.96 452.938 352.059 452.938 345.905V322.701Z" stroke="#024873" strokeWidth="1.397" strokeLinecap="round" strokeLinejoin="round"/>
<path d="M525.859 403.246L528.024 327.934" stroke="#024873" strokeWidth="1.397" strokeLinecap="round" strokeLinejoin="round"/>
<path d="M356.655 390.693L353.051 325.41" stroke="#024873" strokeWidth="1.397" strokeLinecap="round" strokeLinejoin="round"/>
<path d="M399.154 172.84L392.2 138.437C391.809 135.635 390.722 131.311 392.053 127.248C394.256 120.525 402.351 107.615 416.185 113.523L419.177 127.142C419.177 127.142 404.809 130.043 399.044 148.839L399.154 172.84Z" fill="#024873"/>
<path d="M415.17 120.627C414.919 125.147 410.929 144.925 396.902 152.131C396.902 152.131 384.616 125.781 415.17 120.627Z" fill="#024873"/>
<path d="M464.378 250.593V192.176H410.523V250.593L394.492 257.901C394.492 257.901 398.252 282.113 438.015 282.649C477.777 283.186 481.771 259.092 481.771 259.092L464.378 250.593Z" fill="#FFB1A5"/>
<path d="M416.191 113.527C416.191 113.527 426.075 87.4533 456.551 101.314C474.99 109.703 480.164 120.952 482.363 128.921C483.089 131.963 483.366 135.096 483.185 138.218L475.814 172.84L447.033 124.938L419.183 127.147L416.191 113.527Z" fill="#024873"/>
<path d="M475.814 172.841C475.814 172.841 479.445 167.067 486.933 169.906C494.421 172.746 491.034 190.933 479.801 193.25C478.539 193.474 477.244 193.422 476.004 193.097C474.763 192.773 473.608 192.184 472.617 191.371C472.617 191.371 475.379 177.939 475.814 172.841Z" fill="#F3978E"/>
<path d="M485.448 176.323C485.448 176.323 479.174 174.23 474.723 183.467" stroke="#024873" strokeWidth="1.397" strokeLinecap="round" strokeLinejoin="round"/>
<path d="M399.154 172.841C399.154 172.841 395.523 167.067 388.035 169.906C380.548 172.746 383.935 190.933 395.167 193.25C396.429 193.474 397.725 193.421 398.965 193.097C400.205 192.773 401.36 192.184 402.351 191.371C402.351 191.371 399.592 177.939 399.154 172.841Z" fill="#F3978E"/>
<path d="M389.523 176.323C389.523 176.323 395.797 174.23 400.248 183.467" stroke="#024873" strokeWidth="1.397" strokeLinecap="round" strokeLinejoin="round"/>
<path d="M476.561 155.581C476.561 166.544 475.488 189.481 468.749 203.095C462.42 215.877 451.954 222.756 438.232 223.165C424.509 223.574 414.289 218.287 406.097 201.697C397.905 185.108 398.296 155.785 398.296 155.785C398.296 155.785 398.296 116.621 437.003 116.621C477.771 116.621 476.561 155.581 476.561 155.581Z" fill="#FFB1A5"/>
<path d="M410.93 209.875C410.93 209.875 415.44 232.75 435.353 235.384C458.273 238.411 464.377 210.455 464.377 210.455C464.377 210.455 454.25 223.145 438.233 223.165C432.977 223.139 427.793 221.931 423.067 219.631C418.341 217.33 414.193 213.996 410.93 209.875Z" fill="#024873"/>
<path d="M434.668 171.842V180.906C434.667 181.286 434.739 181.663 434.88 182.015C435.166 182.66 435.676 183.179 436.316 183.476C436.956 183.772 437.682 183.827 438.359 183.629L441.364 182.829" stroke="#024873" strokeWidth="1.397" strokeLinecap="round" strokeLinejoin="round"/>
<path d="M423.236 167.515C423.236 168.212 423.029 168.893 422.642 169.473C422.255 170.052 421.704 170.504 421.06 170.771C420.416 171.037 419.708 171.107 419.024 170.971C418.341 170.835 417.713 170.499 417.22 170.007C416.727 169.514 416.391 168.886 416.255 168.202C416.119 167.519 416.189 166.81 416.456 166.166C416.722 165.522 417.174 164.972 417.754 164.584C418.333 164.197 419.015 163.99 419.712 163.99C420.646 163.99 421.543 164.362 422.204 165.023C422.865 165.684 423.236 166.58 423.236 167.515Z" fill="#024873"/>
<path d="M456.271 167.515C456.271 168.212 456.064 168.893 455.677 169.473C455.29 170.052 454.739 170.504 454.095 170.771C453.451 171.037 452.742 171.107 452.059 170.971C451.375 170.835 450.747 170.499 450.254 170.006C449.762 169.513 449.426 168.885 449.29 168.201C449.154 167.518 449.224 166.809 449.491 166.165C449.758 165.521 450.21 164.971 450.79 164.584C451.37 164.197 452.051 163.99 452.748 163.99C453.211 163.99 453.669 164.082 454.097 164.259C454.524 164.436 454.913 164.696 455.24 165.023C455.567 165.35 455.826 165.739 456.003 166.166C456.18 166.594 456.271 167.052 456.271 167.515Z" fill="#024873"/>
<path d="M443.73 149.984L467.422 156.104C467.422 156.104 466.345 149.459 456.653 147.044C446.961 144.629 443.73 149.984 443.73 149.984Z" fill="#024873"/>
<path d="M429.008 149.985L405.316 156.102C405.316 156.102 406.394 149.457 416.086 147.042C425.778 144.627 429.008 149.985 429.008 149.985Z" fill="#024873"/>
<path d="M424.297 190.037C424.297 190.037 427.792 192.716 436.984 192.716C441.65 192.82 446.284 191.906 450.562 190.037" stroke="#024873" strokeWidth="1.397" strokeLinecap="round" strokeLinejoin="round"/>
<path d="M418.762 183.516C427.031 183.516 433.735 176.812 433.735 168.543C433.735 160.274 427.031 153.57 418.762 153.57C410.493 153.57 403.789 160.274 403.789 168.543C403.789 176.812 410.493 183.516 418.762 183.516Z" stroke="white" strokeWidth="1.951" stroke-miterlimit="10"/>
<path d="M455.547 183.516C463.816 183.516 470.52 176.812 470.52 168.543C470.52 160.274 463.816 153.57 455.547 153.57C447.278 153.57 440.574 160.274 440.574 168.543C440.574 176.812 447.278 183.516 455.547 183.516Z" stroke="white" strokeWidth="1.951" stroke-miterlimit="10"/>
<path d="M433.738 168.544C433.738 168.544 437.285 165.233 440.576 168.544" stroke="white" strokeWidth="1.951" stroke-miterlimit="10"/>
<path d="M403.79 168.544L398.77 168.416" stroke="white" strokeWidth="1.951" stroke-miterlimit="10"/>
<path d="M470.52 168.545L476.125 168.454" stroke="white" strokeWidth="1.951" stroke-miterlimit="10"/>
<path d="M410.93 121.524C410.93 121.524 418.121 141.952 450.567 141.326C472.611 140.9 477.879 156.853 477.879 156.853C477.879 156.853 474.042 121.186 473.027 121.523C472.012 121.86 439.476 112.84 439.476 112.84L410.93 121.524Z" fill="#024873"/>
</g>
</svg>
