<svg width="35" height="35" viewBox="0 0 47 47" fill="none" xmlns="http://www.w3.org/2000/svg">
<g style="mix-blend-mode:darken">
<rect x="0.855469" y="0.917236" width="46.0626" height="46.0626" fill=""/>
</g>
<path d="M23.6152 23.952C28.9903 23.952 33.3476 19.6556 33.3476 14.3557C33.3476 9.05572 28.9903 4.75928 23.6152 4.75928C18.2402 4.75928 13.8828 9.05572 13.8828 14.3557C13.8828 19.6556 18.2402 23.952 23.6152 23.952Z" stroke="#A0E3F2" strokeWidth="2.65746"/>
<path d="M31.4006 31.6307H43.0795M33.3471 43.1464H10.5071C9.95503 43.1465 9.40926 43.0309 8.906 42.8071C8.40275 42.5833 7.95351 42.2566 7.5881 41.8486C7.2227 41.4405 6.94948 40.9605 6.7866 40.4404C6.62371 39.9203 6.57487 39.372 6.64333 38.8319L7.40245 32.8361C7.57899 31.4431 8.26555 30.1617 9.33304 29.2328C10.4005 28.304 11.7754 27.7917 13.1991 27.7922H13.8823L33.3471 43.1464ZM37.2401 25.8729V37.3886V25.8729Z" stroke="#A0E3F2" strokeWidth="2.65746" strokeLinecap="round" strokeLinejoin="round"/>
</svg>
