 <svg
          width="24"
          height="28"
          viewBox="0 0 33 38"
          fill="none"
          xmlns="http://www.w3.org/2000/svg"
        >
          <path
            d="M21.7692 29.4615V30.7692C21.7692 32.1565 21.2142 33.487 20.2262 34.4679C19.2382 35.4489 17.8982 36 16.501 36C15.1038 36 13.7638 35.4489 12.7758 34.4679C11.7878 33.487 11.2327 32.1565 11.2327 30.7692V29.4615M30.6331 26.7996C28.5192 24.2308 27.0268 22.9231 27.0268 15.8411C27.0268 9.35577 23.6913 7.04524 20.9461 5.92308C20.5814 5.77433 20.2382 5.43269 20.127 5.06082C19.6455 3.43356 18.2955 2 16.501 2C14.7065 2 13.3557 3.43438 12.8791 5.06245C12.7679 5.43841 12.4247 5.77433 12.06 5.92308C9.31146 7.04687 5.97928 9.34923 5.97928 15.8411C5.97516 22.9231 4.48277 24.2308 2.36888 26.7996C1.49303 27.8637 2.26022 29.4615 3.79213 29.4615H29.2181C30.7417 29.4615 31.504 27.8588 30.6331 26.7996Z"
            stroke="#A25EDF"
            strokeWidth="3"
            strokeLinecap="round"
            strokeLinejoin="round"
          />
        </svg>