<svg width="35" height="35" viewBox="0 0 47 47" fill="none" xmlns="http://www.w3.org/2000/svg">
<g style="mix-blend-mode:darken">
<rect x="0.171875" y="0.917236" width="46.0626" height="46.0626" fill=""/>
</g>
<path d="M33.4768 13.748H39.8642C40.2505 13.7484 40.6229 13.8922 40.9093 14.1515C41.1956 14.4108 41.3756 14.7671 41.4142 15.1515L42.3654 24.6639H39.2279L38.4482 16.8669H33.4768V21.5451C33.4768 21.9587 33.3125 22.3553 33.0201 22.6478C32.7276 22.9402 32.331 23.1045 31.9174 23.1045C31.5038 23.1045 31.1072 22.9402 30.8147 22.6478C30.5223 22.3553 30.358 21.9587 30.358 21.5451V16.8669H17.8827V21.5451C17.8827 21.9587 17.7184 22.3553 17.426 22.6478C17.1335 22.9402 16.7369 23.1045 16.3233 23.1045C15.9097 23.1045 15.5131 22.9402 15.2206 22.6478C14.9282 22.3553 14.7639 21.9587 14.7639 21.5451V16.8669H9.78936L7.2943 41.8174H24.1203V44.9362H5.56959C5.35178 44.936 5.13644 44.8902 4.93743 44.8017C4.73842 44.7132 4.56015 44.584 4.41412 44.4224C4.26809 44.2607 4.15754 44.0704 4.08958 43.8634C4.02161 43.6565 3.99775 43.4376 4.01954 43.2209L6.82647 15.1515C6.86511 14.7671 7.04504 14.4108 7.33141 14.1515C7.61779 13.8922 7.99021 13.7484 8.37653 13.748H14.7639V12.6596C14.7639 7.25152 18.9306 2.83215 24.1203 2.83215C29.3101 2.83215 33.4768 7.25152 33.4768 12.6596V13.7511V13.748ZM30.358 13.748V12.6596C30.358 8.93569 27.5448 5.95098 24.1203 5.95098C20.6959 5.95098 17.8827 8.93569 17.8827 12.6596V13.7511H30.358V13.748ZM40.1729 36.9521C40.3152 36.7973 40.4873 36.6729 40.6788 36.5863C40.8704 36.4997 41.0775 36.4528 41.2877 36.4483C41.4978 36.4438 41.7067 36.4818 41.9018 36.5601C42.0969 36.6384 42.2742 36.7553 42.4229 36.9039C42.5717 37.0524 42.6889 37.2295 42.7674 37.4245C42.846 37.6195 42.8844 37.8283 42.8801 38.0385C42.8759 38.2487 42.8293 38.4558 42.743 38.6475C42.6567 38.8392 42.5325 39.0115 42.3779 39.154L36.1403 45.3916C35.8478 45.6839 35.4513 45.8482 35.0378 45.8482C34.6243 45.8482 34.2277 45.6839 33.9353 45.3916L27.6976 39.154C27.5487 39.0101 27.4299 38.838 27.3482 38.6478C27.2664 38.4575 27.2234 38.2529 27.2216 38.0458C27.2198 37.8388 27.2593 37.6334 27.3377 37.4418C27.4161 37.2501 27.5319 37.076 27.6783 36.9296C27.8247 36.7832 27.9988 36.6674 28.1905 36.589C28.3821 36.5106 28.5875 36.4711 28.7945 36.4729C29.0016 36.4747 29.2062 36.5178 29.3965 36.5995C29.5867 36.6812 29.7588 36.8 29.9026 36.9489L33.4768 40.5262V29.3421C33.4768 28.9286 33.6411 28.5319 33.9335 28.2395C34.226 27.947 34.6226 27.7827 35.0362 27.7827C35.4498 27.7827 35.8464 27.947 36.1389 28.2395C36.4313 28.5319 36.5956 28.9286 36.5956 29.3421V40.5262L40.1729 36.9489V36.9521Z" fill="#A0E3F2"/>
</svg>
