<svg xmlns="http://www.w3.org/2000/svg" width="31" height="31" viewBox="0 0 31 31" fill="none">
  <path d="M2.58398 2.58301H4.8315C6.2265 2.58301 7.3244 3.78426 7.20815 5.16634L6.13607 18.0313C5.95523 20.1368 7.62147 21.9451 9.73981 21.9451H23.4961C25.3561 21.9451 26.9836 20.4209 27.1257 18.5738L27.8232 8.88634C27.9782 6.74217 26.3507 4.99842 24.1936 4.99842H7.51816" stroke="#024873" strokeWidth="1.31129" stroke-miterlimit="10" strokeLinecap="round" strokeLinejoin="round"/>
  <path d="M20.9896 28.4163C21.8814 28.4163 22.6042 27.6935 22.6042 26.8017C22.6042 25.91 21.8814 25.1871 20.9896 25.1871C20.0978 25.1871 19.375 25.91 19.375 26.8017C19.375 27.6935 20.0978 28.4163 20.9896 28.4163Z" stroke="#024873" strokeWidth="1.31129" stroke-miterlimit="10" strokeLinecap="round" strokeLinejoin="round"/>
  <path d="M10.6556 28.4163C11.5473 28.4163 12.2702 27.6935 12.2702 26.8017C12.2702 25.91 11.5473 25.1871 10.6556 25.1871C9.76388 25.1871 9.04102 25.91 9.04102 26.8017C9.04102 27.6935 9.76388 28.4163 10.6556 28.4163Z" stroke="#024873" strokeWidth="1.31129" stroke-miterlimit="10" strokeLinecap="round" strokeLinejoin="round"/>
  <path d="M11.625 10.333H27.125" stroke="#024873" strokeWidth="1.31129" stroke-miterlimit="10" strokeLinecap="round" strokeLinejoin="round"/>
</svg>